<?xml version="1.0" encoding="utf-8"?>
<!-- Generator: Adobe Illustrator 19.2.1, SVG Export Plug-In . SVG Version: 6.00 Build 0)  -->
<svg version="1.1" id="Layer_1" xmlns="http://www.w3.org/2000/svg" xmlns:xlink="http://www.w3.org/1999/xlink" x="0px" y="0px"
	 viewBox="0 0 124 51" style="enable-background:new 0 0 124 51;" xml:space="preserve">
<g>
	<path style="fill:#00805f;" d="M5.7,2.4H0V0.3h14v2.1H8.2v16.8H5.7V2.4z"/>
</g>
<g>
	<path style="fill:#00805f;" d="M38.7,10.3h-7.3v6.8h8.2v2H29V0.3h10.2v2h-7.8v6h7.3V10.3z"/>
</g>
<g>
	<path style="fill:#00805f;" d="M56.4,16.2c1.1,0.7,2.7,1.2,4.4,1.2c2.5,0,3.9-1.3,3.9-3.2c0-1.8-1-2.8-3.6-3.8
		c-3.1-1.1-5-2.7-5-5.4c0-2.9,2.4-5.1,6.1-5.1c1.9,0,3.3,0.4,4.2,0.9l-0.7,2C65.2,2.6,64,2,62.2,2c-2.6,0-3.6,1.5-3.6,2.8
		c0,1.8,1.1,2.6,3.8,3.6c3.2,1.2,4.8,2.8,4.8,5.5c0,2.9-2.2,5.4-6.6,5.4c-1.8,0-3.8-0.5-4.8-1.2L56.4,16.2z"/>
</g>
<g>
	<path style="fill:#00805f;" d="M83.6,0.3H86v16.8h8.1v2H83.6V0.3z"/>
</g>
<g>
	<path style="fill:#00805f;" d="M112.7,13.3l-2,5.9h-2.5l6.4-18.9h2.9l6.4,18.9h-2.6l-2-5.9H112.7z M118.9,11.3L117,5.9
		c-0.4-1.2-0.7-2.4-1-3.4H116c-0.3,1.1-0.6,2.3-1,3.4l-1.8,5.5H118.9z"/>
</g>
<g>
	<path style="fill:#00805f;" d="M3.5,31.8v7.9h9.1v-7.9h2.5v18.9h-2.5v-8.9H3.5v8.9H1.1V31.8H3.5z"/>
</g>
<g>
	<path style="fill:#00805f;" d="M44,41.1c0,6.5-3.9,9.9-8.8,9.9c-5,0-8.5-3.9-8.5-9.6c0-6,3.7-9.9,8.8-9.9
		C40.6,31.5,44,35.5,44,41.1z M29.3,41.4c0,4,2.2,7.6,6,7.6c3.9,0,6.1-3.6,6.1-7.8c0-3.8-2-7.7-6-7.7C31.3,33.5,29.3,37.2,29.3,41.4
		z"/>
</g>
<g>
	<path style="fill:#00805f;" d="M58,31.8V43c0,4.2,1.9,6,4.4,6c2.8,0,4.6-1.8,4.6-6V31.8h2.5v11c0,5.8-3.1,8.2-7.1,8.2
		c-3.9,0-6.8-2.2-6.8-8.1V31.8H58z"/>
</g>
<g>
	<path style="fill:#00805f;" d="M84.7,47.7c1.1,0.7,2.7,1.2,4.4,1.2c2.5,0,3.9-1.3,3.9-3.2c0-1.8-1-2.8-3.6-3.8
		c-3.1-1.1-5-2.7-5-5.4c0-2.9,2.4-5.1,6.1-5.1c1.9,0,3.3,0.4,4.2,0.9l-0.7,2c-0.6-0.3-1.9-0.9-3.6-0.9c-2.6,0-3.6,1.5-3.6,2.8
		c0,1.8,1.1,2.6,3.8,3.6c3.2,1.2,4.8,2.8,4.8,5.5c0,2.9-2.2,5.4-6.6,5.4c-1.8,0-3.8-0.5-4.8-1.2L84.7,47.7z"/>
</g>
<g>
	<path style="fill:#00805f;" d="M121.5,41.9h-7.3v6.8h8.2v2h-10.6V31.8h10.2v2h-7.8v6h7.3V41.9z"/>
</g>
</svg>
