<svg xmlns="http://www.w3.org/2000/svg" xmlns:xlink="http://www.w3.org/1999/xlink" preserveAspectRatio="xMidYMid" width="226.969" height="103" viewBox="0 0 226.969 103">
  <defs>
    <style>
      .cls-1, .cls-2 {
        fill: #fff;
      }

      .cls-1, .cls-2, .cls-3 {
        fill-rule: evenodd;
      }

      .cls-2 {
        opacity: 0.3;
      }

      .cls-3 {
        fill: #4a4b57;
      }
    </style>
  </defs>
  <g>
    <path d="M201.390,72.100 C201.390,72.100 204.719,66.950 208.293,66.950 C217.030,66.950 221.860,72.100 221.860,72.100 L201.390,72.100 ZM196.254,65.269 L196.254,58.473 C196.254,58.473 199.457,58.185 201.373,60.083 C202.794,61.490 203.080,65.233 203.080,65.233 L199.667,68.667 L196.254,65.269 ZM178.471,57.459 C167.196,57.459 158.026,66.738 158.026,78.140 C158.026,80.140 158.322,82.068 158.848,83.898 L140.654,83.898 C140.661,83.687 140.684,83.479 140.684,83.264 C140.684,78.682 138.706,74.571 135.577,71.722 C138.226,69.624 142.490,67.035 148.269,65.762 L148.269,64.136 C141.779,65.483 137.098,68.377 134.292,70.668 C131.761,68.817 128.666,67.713 125.312,67.713 C123.493,67.713 121.755,68.050 120.138,68.640 C120.308,64.623 120.799,60.392 122.121,59.885 C128.632,57.434 137.114,55.967 143.954,55.348 L143.954,42.592 C143.954,40.802 143.072,40.386 142.949,40.336 C142.106,40.096 141.616,39.210 141.855,38.360 C142.093,37.511 142.958,37.021 143.807,37.258 C145.037,37.610 147.118,39.127 147.118,42.593 L147.118,55.111 C147.602,55.082 148.059,55.066 148.512,55.047 L152.213,38.939 C152.358,38.314 152.854,37.836 153.478,37.726 C154.241,37.590 172.309,34.412 185.898,37.180 C186.753,37.354 187.309,38.197 187.139,39.064 C186.966,39.930 186.136,40.496 185.276,40.317 C185.086,40.279 184.890,40.253 184.700,40.217 L187.195,54.900 C187.200,54.930 187.189,54.961 187.193,54.994 L187.754,54.994 C190.743,54.994 191.339,56.944 191.339,56.944 L193.170,61.591 L191.648,62.356 C188.087,59.307 183.488,57.459 178.471,57.459 ZM129.538,60.502 C129.133,60.341 128.675,60.543 128.510,60.954 L127.228,64.262 C127.068,64.673 127.270,65.136 127.675,65.299 C127.770,65.335 127.866,65.353 127.965,65.353 C128.280,65.353 128.576,65.160 128.701,64.847 L129.985,61.538 C130.144,61.128 129.944,60.662 129.538,60.502 ZM133.265,60.502 C132.865,60.341 132.401,60.543 132.240,60.954 L130.957,64.262 C130.798,64.673 130.998,65.136 131.404,65.299 C131.499,65.335 131.597,65.353 131.694,65.353 C132.011,65.353 132.307,65.160 132.431,64.847 L133.714,61.538 C133.873,61.128 133.673,60.662 133.265,60.502 ZM167.211,41.244 L154.932,41.244 L151.437,56.469 L151.437,68.110 L157.165,68.103 C159.068,62.937 163.144,59.245 167.211,57.113 L167.211,41.244 ZM181.663,41.243 L170.374,41.243 L170.374,55.788 C171.617,55.376 172.818,55.079 173.873,54.994 L184.001,54.994 L181.663,41.243 ZM104.111,66.950 C104.111,66.950 102.985,65.555 107.523,63.516 C112.904,61.099 117.762,61.800 117.762,61.800 L117.762,68.667 L110.936,72.100 L104.111,66.950 ZM63.148,72.100 C63.148,72.100 66.673,68.667 69.984,68.667 C73.294,68.667 93.706,66.937 97.285,66.950 C100.865,66.963 104.201,72.100 104.201,72.100 L63.148,72.100 ZM77.180,78.962 C77.300,79.083 77.466,79.107 77.611,79.010 C80.226,77.365 81.040,75.259 81.304,74.074 C81.375,73.759 81.807,73.711 81.951,73.977 C82.742,75.525 83.893,79.034 80.200,82.785 C80.081,82.906 80.057,83.076 80.153,83.221 C81.783,85.858 83.869,86.681 85.044,86.948 C85.356,86.996 85.428,87.431 85.140,87.576 C83.606,88.375 80.129,89.537 76.412,85.810 C76.292,85.689 76.125,85.665 75.980,85.762 C73.368,87.407 72.552,89.512 72.288,90.698 C72.240,91.013 71.809,91.085 71.665,90.795 C70.873,89.246 69.722,85.737 73.415,81.986 C73.534,81.865 73.558,81.696 73.463,81.551 C71.832,78.913 69.746,78.090 68.571,77.825 C68.259,77.776 68.188,77.341 68.475,77.195 C69.986,76.372 73.487,75.235 77.180,78.962 ZM75.406,83.390 C76.101,84.358 77.492,84.358 78.162,83.390 C78.594,82.809 78.594,81.986 78.162,81.430 C77.466,80.462 76.076,80.462 75.406,81.430 C74.998,82.010 74.998,82.809 75.406,83.390 ZM97.647,78.962 C97.767,79.083 97.935,79.107 98.079,79.010 C100.701,77.365 101.519,75.259 101.783,74.074 C101.856,73.759 102.289,73.711 102.432,73.977 C103.227,75.525 104.381,79.034 100.677,82.785 C100.557,82.906 100.534,83.076 100.630,83.221 C102.265,85.858 104.357,86.681 105.536,86.948 C105.848,86.996 105.921,87.431 105.632,87.576 C104.093,88.375 100.605,89.537 96.878,85.810 C96.756,85.689 96.589,85.665 96.444,85.762 C93.822,87.407 93.004,89.512 92.740,90.698 C92.692,91.013 92.259,91.085 92.114,90.795 C91.321,89.246 90.166,85.737 93.870,81.986 C93.991,81.865 94.015,81.696 93.918,81.551 C92.284,78.913 90.190,78.090 89.012,77.825 C88.699,77.776 88.627,77.341 88.915,77.195 C90.430,76.372 93.942,75.235 97.647,78.962 ZM95.866,83.390 C96.564,84.358 97.960,84.358 98.633,83.390 C99.066,82.809 99.066,81.986 98.633,81.430 C97.935,80.462 96.540,80.462 95.866,81.430 C95.457,82.010 95.457,82.809 95.866,83.390 ZM125.312,70.501 C132.297,70.501 137.976,76.249 137.976,83.314 C137.976,90.381 132.298,96.131 125.312,96.131 C118.330,96.131 112.644,90.381 112.644,83.314 C112.642,76.249 118.330,70.501 125.312,70.501 ZM125.312,89.345 C128.604,89.345 131.272,86.646 131.272,83.315 C131.272,79.984 128.605,77.287 125.312,77.287 C122.019,77.287 119.350,79.983 119.350,83.315 C119.350,86.645 122.019,89.345 125.312,89.345 ZM178.470,60.148 C188.277,60.148 196.255,68.217 196.255,78.139 C196.255,88.060 188.276,96.133 178.470,96.133 C168.664,96.133 160.681,88.060 160.681,78.139 C160.681,68.217 168.664,60.148 178.470,60.148 ZM178.468,88.271 C183.990,88.271 188.483,83.727 188.483,78.138 C188.483,72.550 183.991,68.004 178.468,68.004 C172.946,68.004 168.453,72.550 168.453,78.138 C168.453,83.726 172.946,88.271 178.468,88.271 ZM178.468,71.205 C182.248,71.205 185.318,74.315 185.318,78.138 C185.318,81.959 182.247,85.069 178.468,85.069 C174.689,85.069 171.617,81.959 171.617,78.138 C171.615,74.315 174.689,71.205 178.468,71.205 ZM210.288,78.962 C210.408,79.083 210.575,79.107 210.721,79.010 C213.342,77.365 214.160,75.259 214.424,74.074 C214.497,73.759 214.930,73.711 215.074,73.977 C215.868,75.525 217.023,79.034 213.318,82.785 C213.199,82.906 213.175,83.076 213.271,83.221 C214.907,85.858 216.998,86.681 218.176,86.948 C218.489,86.996 218.562,87.431 218.273,87.576 C216.734,88.375 213.246,89.537 209.519,85.810 C209.397,85.689 209.229,85.665 209.085,85.762 C206.464,87.407 205.645,89.512 205.381,90.698 C205.332,91.013 204.899,91.085 204.756,90.795 C203.962,89.246 202.808,85.737 206.511,81.986 C206.632,81.865 206.655,81.696 206.559,81.551 C204.924,78.913 202.831,78.090 201.652,77.825 C201.340,77.776 201.269,77.341 201.556,77.195 C203.071,76.372 206.583,75.235 210.288,78.962 ZM208.508,83.390 C209.205,84.358 210.601,84.358 211.274,83.390 C211.707,82.809 211.707,81.986 211.274,81.430 C210.575,80.462 209.181,80.462 208.508,81.430 C208.098,82.010 208.098,82.809 208.508,83.390 Z" class="cls-1"/>
    <path d="M211.857,96.157 C202.780,96.157 194.581,95.386 194.581,94.436 C194.581,93.486 207.667,92.714 211.857,92.714 C216.861,92.714 226.971,93.486 226.971,94.436 C226.971,95.386 218.709,96.157 211.857,96.157 ZM226.973,101.549 C226.965,102.425 202.236,103.079 184.391,103.008 C166.544,102.937 152.069,102.169 152.079,101.292 C152.087,100.416 166.577,99.762 184.422,99.833 C202.266,99.904 226.980,100.673 226.973,101.549 ZM150.799,96.133 C146.957,96.133 138.253,94.855 138.261,93.978 C138.267,93.102 150.799,92.700 150.799,92.700 C150.799,92.700 163.840,93.541 163.832,94.417 C163.827,95.293 154.640,96.133 150.799,96.133 ZM97.291,96.157 C88.816,96.157 81.938,95.387 81.938,94.436 C81.938,93.486 88.816,92.714 97.291,92.714 C105.765,92.714 112.643,93.486 112.643,94.436 C112.643,95.387 105.765,96.157 97.291,96.157 ZM148.056,101.292 C148.052,102.169 118.943,102.823 78.876,102.751 C38.808,102.681 6.293,101.912 6.297,101.035 C6.302,100.159 38.823,99.506 78.890,99.576 C118.958,99.647 148.058,100.416 148.056,101.292 ZM38.829,95.566 C17.392,95.566 -0.006,94.855 -0.006,93.978 C-0.006,93.102 17.392,92.391 38.829,92.391 C60.265,92.391 77.663,93.102 77.663,93.978 C77.663,94.855 60.265,95.566 38.829,95.566 ZM60.085,85.477 C59.390,86.557 58.490,87.390 57.543,87.963 C54.874,89.542 52.852,88.983 52.712,88.467 C52.507,87.708 54.143,86.953 55.642,85.488 C56.172,84.981 56.687,84.377 57.140,83.672 C57.205,83.571 57.267,83.470 57.328,83.369 C58.051,82.216 58.664,80.469 59.108,79.503 C59.618,78.391 60.113,77.704 60.581,77.766 C61.021,77.823 61.381,78.608 61.475,79.892 C61.564,81.139 61.395,83.058 60.362,85.011 C60.275,85.168 60.183,85.324 60.085,85.477 ZM49.292,77.096 C49.215,73.082 49.929,69.810 50.890,69.792 C51.849,69.774 52.691,73.018 52.767,77.031 C52.845,81.046 52.131,84.318 51.171,84.336 C50.212,84.354 49.370,81.110 49.292,77.096 ZM44.798,88.237 C43.853,87.663 42.952,86.834 42.257,85.752 C42.158,85.598 42.065,85.442 41.979,85.285 C40.948,83.332 40.777,81.413 40.867,80.166 C40.959,78.883 41.321,78.097 41.761,78.040 C42.227,77.978 42.723,78.666 43.234,79.777 C43.678,80.744 44.292,82.491 45.013,83.643 C45.073,83.744 45.136,83.845 45.200,83.946 C45.654,84.651 46.169,85.254 46.700,85.762 C48.199,87.228 49.835,87.982 49.630,88.741 C49.490,89.257 47.465,89.817 44.798,88.237 ZM29.034,84.966 C28.337,86.047 27.438,86.878 26.492,87.452 C23.824,89.032 21.800,88.471 21.661,87.956 C21.454,87.197 23.092,86.442 24.590,84.977 C25.120,84.469 25.634,83.866 26.088,83.161 C26.154,83.060 26.216,82.958 26.277,82.857 C26.999,81.704 27.613,79.959 28.055,78.991 C28.567,77.880 29.062,77.192 29.530,77.253 C29.970,77.311 30.329,78.097 30.423,79.380 C30.512,80.628 30.342,82.547 29.311,84.499 C29.225,84.656 29.132,84.812 29.034,84.966 ZM18.375,76.545 C18.299,72.228 19.014,68.710 19.973,68.694 C20.933,68.678 21.775,72.169 21.851,76.485 C21.930,80.802 21.214,84.320 20.255,84.336 C19.296,84.353 18.453,80.861 18.375,76.545 ZM14.163,87.963 C13.218,87.390 12.318,86.557 11.622,85.477 C11.523,85.324 11.430,85.168 11.343,85.011 C10.312,83.058 10.143,81.139 10.233,79.892 C10.325,78.608 10.684,77.823 11.125,77.766 C11.593,77.704 12.088,78.391 12.598,79.503 C13.042,80.469 13.656,82.216 14.378,83.369 C14.439,83.470 14.501,83.571 14.566,83.672 C15.021,84.377 15.535,84.981 16.066,85.488 C17.563,86.953 19.201,87.708 18.995,88.467 C18.855,88.983 16.831,89.542 14.163,87.963 Z" class="cls-2"/>
    <path d="M93.133,30.851 C93.076,30.907 92.962,30.907 92.906,30.907 L64.181,30.907 C59.859,30.907 56.332,27.549 56.332,23.366 C56.332,19.182 59.859,15.769 64.181,15.769 C64.296,15.769 64.466,15.769 64.579,15.769 C65.774,9.659 71.348,5.146 77.832,5.146 C82.156,5.146 86.421,7.623 89.094,11.586 C90.061,11.256 91.142,11.091 92.166,11.091 C97.797,11.091 102.405,15.549 102.405,20.998 C102.405,26.063 98.366,30.356 93.133,30.851 ZM32.998,20.466 C32.613,20.570 32.229,20.623 31.855,20.623 L13.448,20.623 C10.747,20.623 8.549,18.125 8.549,15.055 C8.549,12.033 10.677,9.567 13.317,9.488 C14.341,6.094 17.310,3.763 20.688,3.763 C21.649,3.763 22.580,3.947 23.466,4.313 C25.282,1.606 28.182,0.006 31.318,0.006 C36.646,0.006 40.980,4.631 40.980,10.316 C40.980,15.335 37.623,19.600 32.998,20.466 Z" class="cls-3"/>
  </g>
</svg>
