<?xml version="1.0" encoding="utf-8"?>
<!-- Generator: Adobe Illustrator 19.2.1, SVG Export Plug-In . SVG Version: 6.00 Build 0)  -->
<svg version="1.1" id="Layer_1" xmlns="http://www.w3.org/2000/svg" xmlns:xlink="http://www.w3.org/1999/xlink" x="0px" y="0px"
	 viewBox="0 0 125.1 218.4" style="enable-background:new 0 0 125.1 218.4;" xml:space="preserve">
<polyline style="fill-rule:evenodd;clip-rule:evenodd;fill:#E4AD2C;" points="1.3,154.2 1.3,36.2 63.1,0.3 124.8,36.2 124.8,154.2 
	1.3,154.2 "/>
<g>
	<path style="fill:#FFFFFF;" d="M63.1,154.4c-0.1,0-0.2,0-0.2-0.1L1.1,66.1C1,66,1.1,65.9,1.2,65.8c0.1-0.1,0.3-0.1,0.3,0.1
		L63.3,154c0.1,0.1,0.1,0.3-0.1,0.3C63.2,154.4,63.1,154.4,63.1,154.4z"/>
</g>
<g>
	<path style="fill:#FFFFFF;" d="M63.1,154.4c-0.1,0-0.1,0-0.2-0.1L1.1,80.8c-0.1-0.1-0.1-0.3,0-0.4c0.1-0.1,0.3-0.1,0.4,0L63.3,154
		c0.1,0.1,0.1,0.3,0,0.4C63.2,154.4,63.1,154.4,63.1,154.4z"/>
</g>
<g>
	<path style="fill:#FFFFFF;" d="M63.1,154.4c-0.1,0-0.1,0-0.2-0.1L1.1,92.6c-0.1-0.1-0.1-0.3,0-0.4s0.3-0.1,0.4,0L63.2,154
		c0.1,0.1,0.1,0.3,0,0.4C63.2,154.4,63.1,154.4,63.1,154.4z"/>
</g>
<g>
	<path style="fill:#FFFFFF;" d="M63.1,154.4c-0.1,0-0.1,0-0.2-0.1L1.2,102.6c-0.1-0.1-0.1-0.2,0-0.4c0.1-0.1,0.2-0.1,0.4,0L63.2,154
		c0.1,0.1,0.1,0.2,0,0.4C63.2,154.4,63.1,154.4,63.1,154.4z"/>
</g>
<g>
	<path style="fill:#FFFFFF;" d="M63.1,154.4c0,0-0.1,0-0.1,0L1.2,111.1c-0.1-0.1-0.1-0.2-0.1-0.3s0.2-0.1,0.3-0.1L63.2,154
		c0.1,0.1,0.1,0.2,0.1,0.3C63.2,154.4,63.1,154.4,63.1,154.4z"/>
</g>
<g>
	<path style="fill:#FFFFFF;" d="M63.1,154.4c0,0-0.1,0-0.1,0L1.2,118.7c-0.1-0.1-0.2-0.2-0.1-0.3c0.1-0.1,0.2-0.2,0.3-0.1L63.2,154
		c0.1,0.1,0.2,0.2,0.1,0.3C63.2,154.4,63.2,154.4,63.1,154.4z"/>
</g>
<g>
	<path style="fill:#FFFFFF;" d="M63.1,154.4c0,0-0.1,0-0.1,0L1.2,125.6c-0.1-0.1-0.2-0.2-0.1-0.3c0.1-0.1,0.2-0.2,0.3-0.1L63.2,154
		c0.1,0.1,0.2,0.2,0.1,0.3C63.3,154.4,63.2,154.4,63.1,154.4z"/>
</g>
<g>
	<path style="fill:#FFFFFF;" d="M63.1,154.4C63,154.4,63,154.4,63.1,154.4L1.2,131.9c-0.1,0-0.2-0.2-0.1-0.3s0.2-0.2,0.3-0.1
		l61.8,22.5c0.1,0,0.2,0.2,0.1,0.3C63.3,154.4,63.2,154.4,63.1,154.4z"/>
</g>
<g>
	<path style="fill:#FFFFFF;" d="M63.1,154.4C63,154.4,63,154.4,63.1,154.4L1.3,137.9c-0.1,0-0.2-0.2-0.2-0.3c0-0.1,0.2-0.2,0.3-0.2
		l61.8,16.5c0.1,0,0.2,0.2,0.2,0.3C63.3,154.4,63.2,154.4,63.1,154.4z"/>
</g>
<g>
	<path style="fill:#FFFFFF;" d="M63.1,154.4C63.1,154.4,63,154.4,63.1,154.4L1.3,143.5c-0.1,0-0.2-0.2-0.2-0.3
		c0-0.1,0.2-0.2,0.3-0.2l61.8,10.9c0.1,0,0.2,0.2,0.2,0.3C63.3,154.3,63.2,154.4,63.1,154.4z"/>
</g>
<g>
	<path style="fill:#FFFFFF;" d="M63.1,154.4C63.1,154.4,63.1,154.4,63.1,154.4L1.3,149c-0.1,0-0.2-0.1-0.2-0.3s0.1-0.2,0.3-0.2
		l61.8,5.4c0.1,0,0.2,0.1,0.2,0.3C63.3,154.3,63.2,154.4,63.1,154.4z"/>
</g>
<g>
	<path style="fill:#FFFFFF;" d="M63.1,154.4H1.3c-0.1,0-0.3-0.1-0.3-0.3s0.1-0.3,0.3-0.3h61.8c0.1,0,0.3,0.1,0.3,0.3
		S63.2,154.4,63.1,154.4z"/>
</g>
<g>
	<path style="fill:#FFFFFF;" d="M124.8,154.4H63.1c-0.1,0-0.3-0.1-0.3-0.3s0.1-0.3,0.3-0.3h61.8c0.1,0,0.3,0.1,0.3,0.3
		S125,154.4,124.8,154.4z"/>
</g>
<g>
	<path style="fill:#FFFFFF;" d="M63.1,154.4c-0.1,0-0.2-0.1-0.2-0.2c0-0.1,0.1-0.3,0.2-0.3l61.8-5.4c0.1,0,0.3,0.1,0.3,0.2
		c0,0.1-0.1,0.3-0.2,0.3L63.1,154.4C63.1,154.4,63.1,154.4,63.1,154.4z"/>
</g>
<g>
	<path style="fill:#FFFFFF;" d="M63.1,154.4c-0.1,0-0.2-0.1-0.2-0.2c0-0.1,0.1-0.3,0.2-0.3l61.8-10.9c0.1,0,0.3,0.1,0.3,0.2
		c0,0.1-0.1,0.3-0.2,0.3L63.1,154.4C63.1,154.4,63.1,154.4,63.1,154.4z"/>
</g>
<g>
	<path style="fill:#FFFFFF;" d="M63.1,154.4c-0.1,0-0.2-0.1-0.2-0.2c0-0.1,0-0.3,0.2-0.3l61.8-16.5c0.1,0,0.3,0,0.3,0.2
		c0,0.1,0,0.3-0.2,0.3L63.1,154.4C63.1,154.4,63.1,154.4,63.1,154.4z"/>
</g>
<g>
	<path style="fill:#FFFFFF;" d="M63.1,154.4c-0.1,0-0.2-0.1-0.2-0.2c0-0.1,0-0.3,0.1-0.3l61.7-22.5c0.1,0,0.3,0,0.3,0.1
		c0,0.1,0,0.3-0.1,0.3L63.1,154.4C63.1,154.4,63.1,154.4,63.1,154.4z"/>
</g>
<g>
	<path style="fill:#FFFFFF;" d="M63.1,154.4c-0.1,0-0.2-0.1-0.2-0.1c-0.1-0.1,0-0.3,0.1-0.3l61.8-28.8c0.1-0.1,0.3,0,0.3,0.1
		c0.1,0.1,0,0.3-0.1,0.3l-61.8,28.8C63.1,154.4,63.1,154.4,63.1,154.4z"/>
</g>
<g>
	<path style="fill:#FFFFFF;" d="M63.1,154.4c-0.1,0-0.2,0-0.2-0.1c-0.1-0.1,0-0.3,0.1-0.3l61.8-35.7c0.1-0.1,0.3,0,0.3,0.1
		c0.1,0.1,0,0.3-0.1,0.3l-61.8,35.7C63.2,154.4,63.1,154.4,63.1,154.4z"/>
</g>
<g>
	<path style="fill:#FFFFFF;" d="M63.1,154.4c-0.1,0-0.2,0-0.2-0.1c-0.1-0.1-0.1-0.3,0.1-0.3l61.8-43.2c0.1-0.1,0.3-0.1,0.3,0.1
		c0.1,0.1,0.1,0.3-0.1,0.3l-61.8,43.2C63.2,154.4,63.1,154.4,63.1,154.4z"/>
</g>
<g>
	<path style="fill:#FFFFFF;" d="M63.1,154.4c-0.1,0-0.1,0-0.2-0.1c-0.1-0.1-0.1-0.3,0-0.4l61.7-51.8c0.1-0.1,0.3-0.1,0.4,0
		c0.1,0.1,0.1,0.3,0,0.4l-61.8,51.8C63.2,154.4,63.1,154.4,63.1,154.4z"/>
</g>
<g>
	<path style="fill:#FFFFFF;" d="M63.1,154.4c-0.1,0-0.1,0-0.2-0.1c-0.1-0.1-0.1-0.3,0-0.4l61.8-61.8c0.1-0.1,0.3-0.1,0.4,0
		s0.1,0.3,0,0.4l-61.8,61.8C63.2,154.4,63.1,154.4,63.1,154.4z"/>
</g>
<g>
	<path style="fill:#FFFFFF;" d="M63.1,154.4c-0.1,0-0.1,0-0.2-0.1c-0.1-0.1-0.1-0.2,0-0.4l61.8-73.6c0.1-0.1,0.2-0.1,0.4,0
		c0.1,0.1,0.1,0.2,0,0.4l-61.8,73.6C63.2,154.4,63.1,154.4,63.1,154.4z"/>
</g>
<g>
	<path style="fill:#FFFFFF;" d="M63.1,154.4c0,0-0.1,0-0.1,0c-0.1-0.1-0.1-0.2-0.1-0.3l61.7-88.2c0.1-0.1,0.2-0.1,0.3-0.1
		c0.1,0.1,0.1,0.2,0.1,0.3l-61.8,88.2C63.2,154.4,63.1,154.4,63.1,154.4z"/>
</g>
<g>
	<path style="fill:#FFFFFF;" d="M63.1,154.4c0,0-0.1,0-0.1,0c-0.1-0.1-0.2-0.2-0.1-0.3l61.7-107c0.1-0.1,0.2-0.2,0.3-0.1
		c0.1,0.1,0.2,0.2,0.1,0.3l-61.8,107C63.2,154.4,63.2,154.4,63.1,154.4z"/>
</g>
<g>
	<path style="fill:#FFFFFF;" d="M63.1,154.4C63,154.4,63,154.4,63.1,154.4c-0.2-0.1-0.3-0.2-0.2-0.3l46.2-127c0-0.1,0.2-0.2,0.3-0.1
		c0.1,0,0.2,0.2,0.1,0.3l-46.2,127C63.3,154.4,63.2,154.4,63.1,154.4z"/>
</g>
<g>
	<path style="fill:#FFFFFF;" d="M63.1,154.4C63,154.4,63,154.4,63.1,154.4c-0.2,0-0.3-0.2-0.2-0.3L98.5,20.9c0-0.1,0.2-0.2,0.3-0.2
		c0.1,0,0.2,0.2,0.2,0.3L63.3,154.2C63.3,154.4,63.2,154.4,63.1,154.4z"/>
</g>
<g>
	<path style="fill:#FFFFFF;" d="M63.1,154.4C63.1,154.4,63,154.4,63.1,154.4c-0.2,0-0.3-0.2-0.2-0.3L87.4,14.5
		c0-0.1,0.1-0.2,0.3-0.2c0.1,0,0.2,0.2,0.2,0.3L63.3,154.2C63.3,154.3,63.2,154.4,63.1,154.4z"/>
</g>
<g>
	<path style="fill:#FFFFFF;" d="M63.1,154.4C63.1,154.4,63.1,154.4,63.1,154.4c-0.2,0-0.3-0.1-0.2-0.3L75.6,7.7
		c0-0.1,0.1-0.2,0.3-0.2c0.1,0,0.2,0.1,0.2,0.3L63.3,154.2C63.3,154.3,63.2,154.4,63.1,154.4z"/>
</g>
<g>
	<path style="fill:#FFFFFF;" d="M63.1,154.4c-0.1,0-0.3-0.1-0.3-0.3V0.3c0-0.1,0.1-0.3,0.3-0.3c0.1,0,0.3,0.1,0.3,0.3v153.9
		C63.3,154.3,63.2,154.4,63.1,154.4z"/>
</g>
<g>
	<path style="fill:#FFFFFF;" d="M63.1,154.4c-0.1,0-0.2-0.1-0.2-0.2L38.2,14.6c0-0.1,0.1-0.3,0.2-0.3c0.1,0,0.3,0.1,0.3,0.2
		l24.6,139.6C63.3,154.3,63.2,154.4,63.1,154.4C63.1,154.4,63.1,154.4,63.1,154.4z"/>
</g>
<g>
	<path style="fill:#FFFFFF;" d="M63.1,154.4c-0.1,0-0.2-0.1-0.2-0.2L27.1,21.1c0-0.1,0-0.3,0.2-0.3c0.1,0,0.3,0,0.3,0.2l35.7,133.2
		C63.3,154.2,63.3,154.4,63.1,154.4C63.1,154.4,63.1,154.4,63.1,154.4z"/>
</g>
<g>
	<path style="fill:#FFFFFF;" d="M63.1,154.4c-0.1,0-0.2-0.1-0.2-0.2l-46.2-127c0-0.1,0-0.3,0.1-0.3c0.1,0,0.3,0,0.3,0.1l46.2,127
		C63.4,154.2,63.3,154.4,63.1,154.4C63.1,154.4,63.1,154.4,63.1,154.4z"/>
</g>
<g>
	<path style="fill:#FFFFFF;" d="M63.1,154.4c-0.1,0-0.2-0.1-0.2-0.1L6.4,33.2c-0.1-0.1,0-0.3,0.1-0.3c0.1-0.1,0.3,0,0.3,0.1
		l56.5,121.1c0.1,0.1,0,0.3-0.1,0.3C63.1,154.4,63.1,154.4,63.1,154.4z"/>
</g>
<g>
	<path style="fill:#FFFFFF;" d="M63.1,154.4c-0.1,0-0.2-0.1-0.2-0.2L50,7.7c0-0.1,0.1-0.3,0.2-0.3c0.1,0,0.3,0.1,0.3,0.2l12.8,146.5
		C63.3,154.3,63.2,154.4,63.1,154.4C63.1,154.4,63.1,154.4,63.1,154.4z"/>
</g>
<g>
	<path style="fill:#FFFFFF;" d="M63.1,154.4c-0.1,0-0.2,0-0.2-0.1L1.1,47.4c-0.1-0.1,0-0.3,0.1-0.3c0.1-0.1,0.3,0,0.3,0.1l61.8,107
		c0.1,0.1,0,0.3-0.1,0.3C63.2,154.4,63.1,154.4,63.1,154.4z"/>
</g>
<g>
	<path style="fill:#FFFFFF;" d="M63.1,154.4c0,0-0.1,0-0.1,0c-0.1-0.1-0.2-0.2-0.1-0.3L119.3,33c0.1-0.1,0.2-0.2,0.3-0.1
		c0.1,0.1,0.2,0.2,0.1,0.3L63.3,154.3C63.3,154.4,63.2,154.4,63.1,154.4z"/>
</g>
<g>
	<path style="fill:#008060;" d="M5.7,169.8H0v-2.1h14v2.1H8.2v16.8H5.7V169.8z"/>
</g>
<g>
	<path style="fill:#008060;" d="M38.6,177.7h-7.3v6.8h8.2v2H28.8v-18.9H39v2h-7.8v6h7.3V177.7z"/>
</g>
<g>
	<path style="fill:#008060;" d="M56.1,183.6c1.1,0.7,2.7,1.2,4.4,1.2c2.5,0,3.9-1.3,3.9-3.2c0-1.8-1-2.8-3.6-3.8
		c-3.1-1.1-5-2.7-5-5.4c0-2.9,2.4-5.1,6.1-5.1c1.9,0,3.3,0.4,4.2,0.9l-0.7,2c-0.6-0.3-1.9-0.9-3.6-0.9c-2.6,0-3.6,1.5-3.6,2.8
		c0,1.8,1.1,2.6,3.8,3.6c3.2,1.2,4.8,2.8,4.8,5.5c0,2.9-2.2,5.4-6.6,5.4c-1.8,0-3.8-0.5-4.8-1.2L56.1,183.6z"/>
</g>
<g>
	<path style="fill:#008060;" d="M83.1,167.7h2.4v16.8h8.1v2H83.1V167.7z"/>
</g>
<g>
	<path style="fill:#008060;" d="M112,180.6l-2,5.9h-2.5l6.4-18.9h2.9l6.4,18.9h-2.6l-2-5.9H112z M118.2,178.7l-1.8-5.4
		c-0.4-1.2-0.7-2.4-1-3.4h-0.1c-0.3,1.1-0.6,2.3-1,3.4l-1.8,5.5H118.2z"/>
</g>
<g>
	<path style="fill:#BD8B17;" d="M3.8,199.2v7.9h9.1v-7.9h2.5v18.9h-2.5v-8.9H3.8v8.9H1.3v-18.9H3.8z"/>
</g>
<g>
	<path style="fill:#BD8B17;" d="M44.4,208.5c0,6.5-3.9,9.9-8.8,9.9c-5,0-8.5-3.9-8.5-9.6c0-6,3.7-9.9,8.8-9.9
		C41.1,198.9,44.4,202.9,44.4,208.5z M29.7,208.8c0,4,2.2,7.6,6,7.6c3.9,0,6.1-3.6,6.1-7.8c0-3.8-2-7.7-6-7.7
		C31.8,200.9,29.7,204.6,29.7,208.8z"/>
</g>
<g>
	<path style="fill:#BD8B17;" d="M58.7,199.2v11.2c0,4.2,1.9,6,4.4,6c2.8,0,4.6-1.8,4.6-6v-11.2h2.5v11c0,5.8-3.1,8.2-7.1,8.2
		c-3.9,0-6.8-2.2-6.8-8.1v-11.1H58.7z"/>
</g>
<g>
	<path style="fill:#BD8B17;" d="M85.5,215.1c1.1,0.7,2.7,1.2,4.4,1.2c2.5,0,3.9-1.3,3.9-3.2c0-1.8-1-2.8-3.6-3.8
		c-3.1-1.1-5-2.7-5-5.4c0-2.9,2.4-5.1,6.1-5.1c1.9,0,3.3,0.4,4.2,0.9l-0.7,2c-0.6-0.3-1.9-0.9-3.6-0.9c-2.6,0-3.6,1.5-3.6,2.8
		c0,1.8,1.1,2.6,3.8,3.6c3.2,1.2,4.8,2.8,4.8,5.5c0,2.9-2.2,5.4-6.6,5.4c-1.8,0-3.8-0.5-4.8-1.2L85.5,215.1z"/>
</g>
<g>
	<path style="fill:#BD8B17;" d="M122.5,209.2h-7.3v6.8h8.2v2h-10.6v-18.9h10.2v2h-7.8v6h7.3V209.2z"/>
</g>
</svg>
