<?xml version="1.0" encoding="utf-8"?>
<!-- Generator: Adobe Illustrator 19.2.1, SVG Export Plug-In . SVG Version: 6.00 Build 0)  -->
<svg version="1.1" id="Layer_1" xmlns="http://www.w3.org/2000/svg" xmlns:xlink="http://www.w3.org/1999/xlink" x="0px" y="0px"
	 viewBox="0 0 31.5 31.5" style="enable-background:new 0 0 31.5 31.5;" xml:space="preserve">
<style type="text/css">
	.st0{fill:#E8603C;}
</style>
<path class="st0" d="M31.2,3.8c0.5,0.5,0.5,1.2,0,1.7l-9.4,9.4c-0.5,0.5-0.5,1.2,0,1.7l9.4,9.4c0.5,0.5,0.5,1.2,0,1.7l-3.4,3.4
	c-0.5,0.5-1.2,0.5-1.7,0l-9.4-9.4c-0.5-0.5-1.2-0.5-1.7,0l-9.4,9.4c-0.5,0.5-1.2,0.5-1.7,0l-3.4-3.4c-0.5-0.5-0.5-1.2,0-1.7l9.4-9.4
	c0.5-0.5,0.5-1.2,0-1.7L0.4,5.5c-0.5-0.5-0.5-1.2,0-1.7l3.4-3.4c0.5-0.5,1.2-0.5,1.7,0l9.4,9.4c0.5,0.5,1.2,0.5,1.7,0L26,0.4
	c0.5-0.5,1.2-0.5,1.7,0L31.2,3.8z"/>
</svg>
