<?xml version="1.0" encoding="UTF-8"?><!DOCTYPE svg PUBLIC "-//W3C//DTD SVG 1.1//EN" "http://www.w3.org/Graphics/SVG/1.1/DTD/svg11.dtd"><svg xmlns="http://www.w3.org/2000/svg"><symbol id="icon-adv-1" viewBox="0 0 89.2 86.1">
    <circle cx="44.6" cy="43.1" r="81" stroke-width="2" stroke-miterlimit="10"/>
    <path d="M48.9 86.1h-8.6c-.5 0-1-.4-1-1V71H1c-.4 0-.7-.2-.9-.6-.2-.4-.1-.8.2-1.1l17.9-18.1 5.8-5.9c.2-.2.4-.3.7-.3H64.5c.3 0 .5.1.7.3l5.8 5.9 17.9 18.1c.3.3.4.7.2 1.1-.1.3-.5.6-.9.6H49.9v14.2c0 .5-.5.9-1 .9zm-7.6-1.9H48V71h-6.7v13.2zM66 69h19.9l-7.8-7.9H62.7L66 69zm-20.4 0h18.3l-3.3-7.9h-15V69zm-20.3 0h18.3v-7.9h-15L25.3 69zm-22 0h19.9l3.3-7.9H11.1L3.3 69zm58.5-9.8h14.4l-6.3-6.4H59.1l2.7 6.4zm-16.2 0h14.2L57 52.8H45.6v6.4zm-16.1 0h14.2v-6.4H32.2l-2.7 6.4zm-16.5 0h14.4l2.7-6.4H19.3L13 59.2zm45.3-8.3H68L64.1 47h-7.5l1.7 3.9zm-12.7 0h10.6L54.5 47h-9v3.9zm-12.6 0h10.6V47h-9L33 50.9zm-11.8 0h9.7l1.7-3.9h-7.5l-3.9 3.9zm23.4-14.6c-.5 0-1-.4-1-1v-5c0-.5.4-1 1-1 .5 0 1 .4 1 1v5c0 .6-.5 1-1 1zm12.1-5c-.2 0-.5-.1-.7-.3l-3.6-3.6c-.4-.4-.4-1 0-1.4.4-.4 1-.4 1.4 0l3.6 3.6c.4.4.4 1 0 1.4-.2.2-.4.3-.7.3zm-24.2 0c-.2 0-.5-.1-.7-.3-.4-.4-.4-1 0-1.4l3.6-3.6c.4-.4 1-.4 1.4 0 .4.4.4 1 0 1.4L33.1 31c-.1.2-.4.3-.6.3zm12.1-4.2c-4.9 0-9-4-9-9 0-4.9 4-9 9-9 4.9 0 8.9 4 8.9 9s-4 9-8.9 9zm0-15.9c-3.9 0-7 3.1-7 7s3.1 7 7 7 7-3.1 7-7-3.1-7-7-7zm17.2 7.9h-5c-.5 0-1-.4-1-1 0-.5.4-1 1-1h5c.5 0 1 .4 1 1-.1.6-.5 1-1 1zm-29.4 0h-5c-.5 0-1-.4-1-1 0-.5.4-1 1-1h5c.5 0 1 .4 1 1s-.4 1-1 1zm20.8-8.6c-.2 0-.5-.1-.7-.3-.4-.4-.4-1 0-1.4l3.6-3.6c.4-.4 1-.4 1.4 0 .4.4.4 1 0 1.4L54 10.2c-.3.2-.6.3-.8.3zm-17.2 0c-.2 0-.5-.1-.7-.3l-3.6-3.6c-.4-.4-.4-1 0-1.4.4-.4 1-.4 1.4 0l3.6 3.6c.4.4.4 1 0 1.4-.2.2-.4.3-.7.3zM44.6 7c-.5 0-1-.4-1-1V1c0-.5.4-1 1-1 .5 0 1 .4 1 1v5c0 .5-.5 1-1 1zm0 0"/>
</symbol><symbol id="icon-adv-10" viewBox="0 0 105.2 59.6">
    <circle cx="52.6" cy="29.8" r="81" stroke-width="2" stroke-miterlimit="10"/>
    <g stroke-width="2" stroke-miterlimit="10">
        <path d="M3.5 35.5c-1.4 0-2.5-1.2-2.5-2.8v-4.9C1 26.3 2.1 25 3.5 25H6v10.4H3.5z"/>
        <path d="M12.8 49.5c-1.5 0-2.8-1.2-2.8-2.8V15c0-1.5 1.2-2.8 2.8-2.8h4.5v37.2h-4.5z"/>
        <path d="M31.7 55.9c0 1.5-1.2 2.8-2.8 2.8h-5c-1.5 0-2.8-1.2-2.8-2.8V3.8c0-1.5 1.2-2.8 2.8-2.8h5c1.5 0 2.8 1.2 2.8 2.8v52.1z"/>
        <path d="M35.6 24.1h34v10.5h-34z"/>
        <path d="M84 55.9c0 1.5-1.2 2.8-2.8 2.8h-5c-1.5 0-2.8-1.2-2.8-2.8V3.8c0-1.5 1.2-2.8 2.8-2.8h5C82.7 1 84 2.2 84 3.8v52.1z"/>
        <path d="M95.2 44.6c0 1.5-1.2 2.8-2.8 2.8h-4.5V10.1h4.5c1.5 0 2.8 1.2 2.8 2.8v31.7z"/>
        <path d="M104.2 31.8c0 1.5-1.1 2.8-2.5 2.8h-2.5V24.2h2.5c1.4 0 2.5 1.2 2.5 2.8v4.8z"/>
    </g>
</symbol><symbol id="icon-adv-11" viewBox="0 0 67.1 93.8">
    <circle cx="33.5" cy="46.9" r="81" stroke-width="2" stroke-miterlimit="10"/>
    <path d="M56.3 1.5s-7.5 7.2-15.5 10.2C-19.1 33.3 6.1 75.5 7 75.6c0 0 3.4-5.8 7.9-9.2C43.6 45.3 49.4 21 49.4 21s-6.5 29.3-32 47.5c-5.6 4-9.5 13.9-11.1 23.8 0 0 4-1.6 5.7-2.1.7-4.4 2.1-8.6 4.4-12.3 35.7 4.3 47.4-24.5 49-34.6 3.7-23.7-9.1-41.8-9.1-41.8zm0 0" stroke-width="2" stroke-miterlimit="10"/>
</symbol><symbol id="icon-adv-2" viewBox="0 0 78.5 68.7">
    <circle cx="31.2" cy="34.3" r="81" stroke-width="2" stroke-miterlimit="10"/>
    <g>
        <path d="M52.8 0H3.6C1.6 0 0 1.6 0 3.6v61.5c0 2 1.6 3.6 3.6 3.6h49.2c2 0 3.6-1.6 3.6-3.6V3.6c0-2-1.6-3.6-3.6-3.6zm1.3 65.1c0 .7-.6 1.3-1.3 1.3H29.3v-48c0-.6-.5-1.2-1.2-1.2-.6 0-1.2.5-1.2 1.2v48H3.6c-.7 0-1.3-.6-1.3-1.3V3.6c0-.7.6-1.3 1.3-1.3H27v3.8c0 .6.5 1.2 1.2 1.2.6 0 1.2-.5 1.2-1.2V2.3h23.4c.7 0 1.3.6 1.3 1.3v61.5zm0 0"/>
        <path d="M28.2 9.8c-.6 0-1.2.5-1.2 1.2v2.5c0 .6.5 1.2 1.2 1.2.6 0 1.2-.5 1.2-1.2V11c-.1-.7-.6-1.2-1.2-1.2zm0 0"/>
        <path d="M76.5 49.5l-5.4 5.4V13.8l5.4 5.4c.2.2.5.3.8.3.3 0 .6-.1.8-.3.5-.5.5-1.2 0-1.6l-7.4-7.4-.1-.1h-.1-.1-.1-.1-.1-.1-.1-.1-.1-.1-.1-.1-.1-.1-.1-.1-.1-.1s-.1 0-.1.1l-7.4 7.4c-.5.4-.5 1.2 0 1.6.2.2.5.3.8.3.3 0 .6-.1.8-.3l5.4-5.4v41.1l-5.4-5.4c-.5-.5-1.2-.5-1.6 0-.5.5-.5 1.2 0 1.6l7.4 7.4.1.1H70.8s.1 0 .1-.1l7.4-7.4c.5-.5.5-1.2 0-1.6-.6-.4-1.3-.4-1.8 0zm0 0"/>
    </g>
</symbol><symbol id="icon-adv-3" viewBox="0 0 77.5 65.1">
    <circle cx="38.8" cy="32.9" r="81" stroke-width="2" stroke-miterlimit="10"/>
    <path d="M63.1 2.4l-24 34L14.7 3.2 1.3 58.8h18.2L22.8 41l16.1 22.4 16-21.9 3.2 17.4h18.1L63.1 2.4zm0 0" stroke-width="2" stroke-miterlimit="10"/>
</symbol><symbol id="icon-adv-4" viewBox="0 0 96.5 70.5">
    <circle cx="48.3" cy="35.3" r="81" stroke-width="2" stroke-miterlimit="10"/>
    <g stroke-width="2" stroke-miterlimit="10">
        <path d="M68 28.9c-.3 0-.6 0-.9.1l-3.5 1-3.7-8.9c-1-2.5-4.1-4.6-6.8-4.6H18.8c-2.7 0-5.8 2.1-6.8 4.6L8.3 30l-3.5-1c-.3-.1-.6-.1-.9-.1-1.7 0-2.9 1.3-2.9 3V34c0 2 1.7 3.7 3.7 3.7h.4l-.6 1.4c-1 2.3-1.7 6.3-1.7 8.9v17.7c0 2 1.7 3.7 3.7 3.7h4.9c2 0 3.7-1.7 3.7-3.7v-4.4h41.7v4.4c0 2 1.7 3.7 3.7 3.7h4.9c2 0 3.7-1.7 3.7-3.7V48.1c0-2.5-.8-6.5-1.7-8.9l-.6-1.4h.4c2 0 3.7-1.7 3.7-3.7V32c0-1.8-1.2-3.1-2.9-3.1zm-57 6.9l5.5-13.5c.6-1.5 2.5-2.8 4.1-2.8h30.7c1.6 0 3.5 1.2 4.1 2.8l5.5 13.5c.6 1.5-.2 2.8-1.8 2.8H12.8c-1.6-.1-2.5-1.3-1.8-2.8zm12.3 17c0 .8-.7 1.5-1.5 1.5H11.3c-.8 0-1.5-.7-1.5-1.5v-5.1c0-.8.7-1.5 1.5-1.5h10.5c.8 0 1.5.7 1.5 1.5v5.1zm38.6 0c0 .8-.7 1.5-1.5 1.5H49.9c-.8 0-1.5-.7-1.5-1.5v-5.1c0-.8.7-1.5 1.5-1.5h10.5c.8 0 1.5.7 1.5 1.5v5.1zm0 0"/>
        <path d="M90.9 1H73.3c-2.6 0-4.6 2.1-4.6 4.6v17.6c0 2.6 2.1 4.6 4.6 4.6h7.1v39.5c0 1 .8 1.7 1.7 1.7 1 0 1.7-.8 1.7-1.7V27.9h7.1c2.6 0 4.6-2.1 4.6-4.6V5.6c0-2.5-2.1-4.6-4.6-4.6zm-4 14.6c-1 .9-2.5 1.4-4.4 1.4H80c-.3 0-.6.2-.6.6v4.3c0 .5-.4.8-.8.8h-1.9c-.5 0-.8-.4-.8-.8V7.1c0-.5.4-.8.8-.8h4.9c3.2 0 4.4.5 5.4 1.3 1 .9 1.6 2.2 1.6 4-.2 1.7-.7 3.1-1.7 4zm0 0"/>
        <path d="M84.1 9.8c-.5-.4-1.3-.5-2.5-.5h-1.7c-.3 0-.6.2-.6.6v3.5c0 .3.2.6.6.6h1c.4 0 1 0 1.4-.1.4 0 1.4-.2 1.8-.5.5-.3.7-.9.7-1.8s-.2-1.5-.7-1.8zm0 0"/>
    </g>
</symbol><symbol id="icon-adv-5" viewBox="0 0 88.4 66.9">
    <circle cx="44.2" cy="33.4" r="81" stroke-width="2" stroke-miterlimit="10"/>
    <path d="M87.5 66.9h-13c-.5 0-.9-.4-.9-.9s.4-.9.9-.9H76l.9-45.6c-1.2 1.7-2.9 3.9-5.4 6-4.8 4.2-13.5 9.2-27.4 9.2-13.9 0-22.5-5-27.2-9.2-2.4-2.1-4.1-4.3-5.2-5.9l.7 45.4h1.5c.5 0 .9.4.9.9s-.4.9-.9.9H.9c-.5 0-.9-.4-.9-.9s.4-.9.9-.9h1.5l.9-49.2c0-.5.4-.9.9-.9h.1v-2.2C2.1 11.6.7 9.3.7 6.8.8 3 3.8 0 7.4 0c3.7 0 6.7 3 6.7 6.7 0 2.6-1.5 4.8-3.6 5.9v2.2H10.8c.1 0 .3.1.4.1l.3.3.1.1c.1.3 1.9 4.5 6.7 8.7 4.5 4 12.7 8.7 25.9 8.7 25.1 0 32.7-16.8 33-17.3 0-.1 0-.1.1-.1l.3-.3c.1-.1.2-.1.4-.1H78.3v-2.2c-2.2-1.1-3.6-3.4-3.6-5.9C74.3 3 77.3 0 81 0c3.7 0 6.7 3 6.7 6.7 0 2.6-1.5 4.8-3.6 5.9v2.2h.1c.5 0 .9.4.9.9L86 65h1.5c.5 0 .9.4.9.9s-.4 1-.9 1zM77.9 65h6.2l-.9-48.3h-4.4L77.9 65zM4.3 65h6.2l-.9-48.3H5.2L4.3 65zm75.5-50.1h2.3v-1.5h-2.3v1.5zm-73.5 0h2.3v-1.5H6.3v1.5zM81 11.5c2.7 0 4.8-2.2 4.8-4.8 0-2.6-2.2-4.8-4.8-4.8-2.6 0-4.8 2.2-4.8 4.8 0 2.6 2.2 4.8 4.8 4.8zm-73.6 0c2.7 0 4.8-2.2 4.8-4.8 0-2.6-2.2-4.8-4.8-4.8-2.6 0-4.8 2.1-4.8 4.8 0 2.6 2.2 4.8 4.8 4.8zm0 0"/>
</symbol><symbol id="icon-adv-6" viewBox="0 0 58.3 101.6">
    <path d="M29.1 71.6c-.1 0-.1 0 0 0L.5 31v-.2h.2l28.4 40.6c.1.1.1.2 0 .2z" stroke-miterlimit="10"/>
    <path d="M29.1 71.6c-.1 0-.1 0 0 0L.5 37.7v-.2h.2l28.4 33.9c.1.1.1.2 0 .2z" stroke-miterlimit="10"/>
    <path d="M29.1 71.6c-.1 0-.1 0 0 0L.5 43.2V43h.2l28.4 28.4c.1.1.1.2 0 .2z" stroke-miterlimit="10"/>
    <path d="M29.1 71.6c-.1 0-.1 0 0 0L.5 47.7s-.1-.1 0-.2c0 0 .1-.1.2 0l28.4 23.9c.1.1.1.2 0 .2z" stroke-miterlimit="10"/>
    <path d="M29.1 71.6c-.1 0-.1 0 0 0L.5 51.7c-.1 0-.1-.1 0-.2 0-.1.1-.1.2 0l28.4 19.9c.1.1.1.1 0 .2z" stroke-miterlimit="10"/>
    <path d="M29.1 71.6c-.1 0-.1 0 0 0L.6 55.2c-.1 0-.1-.1 0-.2 0-.1.1-.1.2 0l28.4 16.4c0 .1 0 .1-.1.2z" stroke-miterlimit="10"/>
    <path d="M29.1 71.6c-.1 0-.1 0 0 0L.6 58.4c-.1 0-.1-.1-.1-.2s.1-.1.2-.1l28.4 13.3c.1 0 .1.1.1.2h-.1z" stroke-miterlimit="10"/>
    <path d="M29.1 71.6c-.1 0-.1 0 0 0L.6 61.3c-.1 0-.1-.1-.1-.1 0-.1.1-.1.1-.1L29 71.5c.1 0 .1.1.1.1.1 0 0 0 0 0z" stroke-miterlimit="10"/>
    <path d="M29.1 71.6s-.1 0 0 0L.6 64c-.1 0-.1-.1-.1-.1 0-.1.1-.1.1-.1L29 71.4c.1 0 .1.1.1.1.1.1 0 .1 0 .1z" stroke-miterlimit="10"/>
    <path d="M29.1 71.6s-.1 0 0 0l-28.5-5c-.1 0-.1-.1-.1-.1 0-.1.1-.1.1-.1l28.4 5c.1 0 .1.1.1.1.1.1 0 .1 0 .1z" stroke-miterlimit="10"/>
    <path d="M29.1 71.6L.6 69.2c-.1 0-.1-.1-.1-.1 0-.1.1-.1.1-.1L29 71.5c.1 0 .1.1.1.1.1 0 0 0 0 0z" stroke-miterlimit="10"/>
    <path d="M29.1 71.6H.6c-.1 0-.1-.1-.1-.1 0-.1.1-.1.1-.1H29c.1 0 .1.1.1.1.1.1 0 .1 0 .1z" stroke-miterlimit="10"/>
    <path d="M57.5 71.6H29.1c-.1 0-.1-.1-.1-.1 0-.1.1-.1.1-.1h28.4c.1 0 .1.1.1.1 0 .1 0 .1-.1.1z" stroke-miterlimit="10"/>
    <path d="M29.1 71.6c-.1 0-.1 0-.1-.1s0-.1.1-.1l28.4-2.5c.1 0 .1 0 .1.1s0 .1-.1.1l-28.4 2.5z" stroke-miterlimit="10"/>
    <path d="M29.1 71.6c-.1 0-.1 0-.1-.1s0-.1.1-.1l28.4-5c.1 0 .1 0 .1.1s0 .1-.1.1l-28.4 5z" stroke-miterlimit="10"/>
    <path d="M29.1 71.6c-.1 0-.1 0-.1-.1s0-.1.1-.1l28.4-7.6c.1 0 .1 0 .1.1s0 .1-.1.1l-28.4 7.6z" stroke-miterlimit="10"/>
    <path d="M29.1 71.6s-.1 0-.1-.1 0-.1.1-.1L57.5 61c.1 0 .1 0 .1.1s0 .1-.1.1L29.1 71.6z" stroke-miterlimit="10"/>
    <path d="M29.1 71.6s-.1 0-.1-.1 0-.1.1-.2L57.5 58c.1 0 .1 0 .2.1 0 .1 0 .1-.1.2L29.1 71.6z" stroke-miterlimit="10"/>
    <path d="M29.1 71.6c-.1 0-.1 0 0 0-.1-.1-.1-.2-.1-.2L57.5 55h.2v.2L29.1 71.6z" stroke-miterlimit="10"/>
    <path d="M29.1 71.6c-.1 0-.1 0 0 0-.1-.1-.1-.2-.1-.2l28.4-19.9h.2v.2L29.1 71.6z" stroke-miterlimit="10"/>
    <path d="M29.1 71.6c-.1 0-.1 0 0 0-.1-.1-.1-.2-.1-.2l28.4-23.9h.2v.2L29.1 71.6z" stroke-miterlimit="10"/>
    <path d="M29.1 71.6c-.1 0-.1 0 0 0-.1-.1-.1-.2-.1-.2L57.4 43h.2v.2L29.1 71.6z" stroke-miterlimit="10"/>
    <path d="M29.1 71.6c-.1 0-.1 0 0 0-.1-.1-.1-.1-.1-.2l28.4-33.9s.1-.1.2 0c0 0 .1.1 0 .2L29.1 71.6z" stroke-miterlimit="10"/>
    <path d="M29.1 71.6c-.1 0-.1 0 0 0-.1-.1-.1-.1-.1-.2l28.4-40.6c0-.1.1-.1.2 0 .1 0 .1.1 0 .2L29.1 71.6z" stroke-miterlimit="10"/>
    <path d="M29.1 71.6c-.1 0-.1 0 0 0-.1 0-.1-.1-.1-.2l28.4-49.3c0-.1.1-.1.2 0 .1 0 .1.1 0 .2L29.1 71.6z" stroke-miterlimit="10"/>
    <path d="M29.1 71.6c-.1 0-.1 0 0 0-.1 0-.1-.1-.1-.2L50.3 13c0-.1.1-.1.1-.1.1 0 .1.1.1.1L29.2 71.6h-.1z" stroke-miterlimit="10"/>
    <path d="M29.1 71.6s-.1 0 0 0c-.1 0-.1-.1-.1-.1l16.4-61.4c0-.1.1-.1.1-.1.1 0 .1.1.1.1L29.2 71.6h-.1z" stroke-miterlimit="10"/>
    <path d="M29.1 71.6s-.1 0 0 0c-.1 0-.1-.1-.1-.1L40.3 7.2c0-.1.1-.1.1-.1.1 0 .1.1.1.1L29.2 71.5c0 .1-.1.1-.1.1z" stroke-miterlimit="10"/>
    <path d="M29.1 71.6c-.1 0-.1-.1-.1-.1L34.9 4c0-.1.1-.1.1-.1.1 0 .1.1.1.1l-5.9 67.5c0 .1-.1.1-.1.1z" stroke-miterlimit="10"/>
    <path d="M29.1 71.6c-.1 0-.1-.1-.1-.1V.6c0-.1.1-.1.1-.1.1 0 .1.1.1.1v70.9c0 .1-.1.1-.1.1z" stroke-miterlimit="10"/>
    <path d="M29.1 71.6c-.1 0-.1 0-.1-.1L17.6 7.2c0-.1 0-.1.1-.1s.1 0 .1.1l11.3 64.3c.1.1 0 .1 0 .1z" stroke-miterlimit="10"/>
    <path d="M29.1 71.6c-.1 0-.1 0-.1-.1L12.5 10.2c0-.1 0-.1.1-.1s.1 0 .1.1l16.4 61.4c.1 0 .1 0 0 0z" stroke-miterlimit="10"/>
    <path d="M29.1 71.6s-.1 0-.1-.1L7.7 13c0-.1 0-.1.1-.1s.1 0 .1.1l21.3 58.5s0 .1-.1.1z" stroke-miterlimit="10"/>
    <path d="M29.1 71.6s-.1 0-.1-.1L3 15.7c0-.1 0-.1.1-.2.1 0 .1 0 .2.1l26 55.8c-.1.1-.1.2-.2.2z" stroke-miterlimit="10"/>
    <path d="M29.1 71.6c-.1 0-.1 0-.1-.1L23 4.1c0-.1 0-.1.1-.1s.1 0 .1.1l5.9 67.5c.1 0 0 0 0 0z" stroke-miterlimit="10"/>
    <path d="M29.1 71.6c-.1 0-.1 0 0 0L.5 22.3v-.2h.2l28.4 49.3c.1.1.1.2 0 .2z" stroke-miterlimit="10"/>
    <path d="M29.1 71.6c-.1 0-.1 0 0 0-.1 0-.1-.1-.1-.2l26-55.8c0-.1.1-.1.2-.1s.1.1.1.2l-26 55.8-.2.1z" stroke-miterlimit="10"/>
    <path d="M3.1 78.7H.5v-1h6.4v1H4.3v7.7H3.1v-7.7z" stroke-miterlimit="10"/>
    <path d="M18.3 82.4H15v3.1h3.8v.9h-4.9v-8.7h4.7v.9H15v2.7h3.4v1.1z" stroke-miterlimit="10"/>
    <path d="M26.5 85.1c.5.3 1.2.6 2 .6 1.1 0 1.8-.6 1.8-1.5 0-.8-.5-1.3-1.6-1.7-1.4-.5-2.3-1.2-2.3-2.5 0-1.4 1.1-2.4 2.8-2.4.9 0 1.5.2 1.9.4l-.3 1c-.3-.2-.9-.4-1.7-.4-1.2 0-1.6.7-1.6 1.3 0 .8.5 1.2 1.7 1.7 1.5.6 2.2 1.3 2.2 2.6s-1 2.5-3 2.5c-.8 0-1.8-.2-2.2-.6l.3-1z" stroke-miterlimit="10"/>
    <path d="M39 77.8h1.1v7.8h3.7v.9H39v-8.7z" stroke-miterlimit="10"/>
    <path d="M52.4 83.7l-.9 2.7h-1.2l3-8.7h1.4l3 8.7h-1.2l-.9-2.7h-3.2zm2.9-.9l-.9-2.5c-.2-.6-.3-1.1-.5-1.6-.1.5-.3 1-.4 1.6l-.9 2.5h2.7z" stroke-miterlimit="10"/>
    <path d="M2.1 92.3v3.6h4.2v-3.6h1.1v8.7H6.3v-4.1H2.1v4.1H1v-8.7h1.1z" stroke-miterlimit="10"/>
    <path d="M20.7 96.5c0 3-1.8 4.6-4 4.6-2.3 0-3.9-1.8-3.9-4.4 0-2.8 1.7-4.6 4-4.6 2.4 0 3.9 1.9 3.9 4.4zm-6.7.2c0 1.9 1 3.5 2.8 3.5 1.8 0 2.8-1.6 2.8-3.6 0-1.7-.9-3.5-2.8-3.5-1.9-.1-2.8 1.7-2.8 3.6z" stroke-miterlimit="10"/>
    <path d="M27.2 92.3v5.1c0 1.9.9 2.8 2 2.8 1.3 0 2.1-.9 2.1-2.8v-5.1h1.1v5.1c0 2.7-1.4 3.8-3.3 3.8-1.8 0-3.1-1-3.1-3.7v-5.1h1.2z" stroke-miterlimit="10"/>
    <path d="M39.5 99.6c.5.3 1.2.6 2 .6 1.1 0 1.8-.6 1.8-1.5 0-.8-.5-1.3-1.6-1.7-1.4-.5-2.3-1.2-2.3-2.5 0-1.4 1.1-2.4 2.8-2.4.9 0 1.5.2 1.9.4l-.3.9c-.3-.2-.9-.4-1.7-.4-1.2 0-1.6.7-1.6 1.3 0 .8.5 1.2 1.7 1.7 1.5.6 2.2 1.3 2.2 2.6s-1 2.5-3 2.5c-.8 0-1.8-.2-2.2-.6l.3-.9z" stroke-miterlimit="10"/>
    <path d="M56.5 96.9h-3.4v3.1h3.8v.9H52v-8.7h4.7v.9h-3.6V96h3.4v.9z" stroke-miterlimit="10"/>
</symbol><symbol id="icon-adv-7" viewBox="0 0 49.5 92.9">
    <circle cx="24.7" cy="46.4" r="81" stroke-width="2" stroke-miterlimit="10"/>
    <path d="M42.3 34.7V17.6C42.3 7.9 34.4 0 24.7 0 15.1 0 7.2 7.9 7.2 17.6v17.1H0v9.6h8.7v21.9h1.5l.6 26.8h3.8l.6-26.8h1.6v-22h16.3v21.9h1.5l.6 26.8H39l.6-26.8h1.6V44.2h8.1v-9.6h-7zm-3.2 9.5V64h-1.5l-.4 17.5-.4-17.5h-1.5V44.2h3.8zm-24.4 0V64h-1.6l-.4 17.5-.4-17.5h-1.5V44.2h3.9zm10-42c8.5 0 15.4 6.9 15.4 15.4v19.3h7.2v5.2H2.2v-5.2h7.2V17.6C9.3 9.1 16.2 2.2 24.7 2.2zm0 0"/>
</symbol><symbol id="icon-adv-8" viewBox="0 0 91.8 78.5">
    <circle cx="46.1" cy="39.3" r="81" stroke-width="2" stroke-miterlimit="10"/>
    <g stroke-width="2" stroke-miterlimit="10">
        <path d="M24.9 28.6c6.5 0 11.7-5.3 11.7-11.7 0-4 1.4-7.7-1.7-9.8-1.9-1.4-10.1-2-12.5-2-2.9 0-6.6 2.4-8.7 4.1-2.5 2.1-.5 4-.5 7.6-.1 6.5 5.2 11.8 11.7 11.8zm-8.2-12.9c2.2-.4 3.6.3 3.6.3l3.6-1.8s-1.8 2.6-.2 1.8c3.7-1.2 7.8-.7 9.8-.3.1.4.1.9.1 1.4 0 4.8-3.8 8.7-8.6 8.7-4.7 0-8.6-3.9-8.6-8.7.1-.5.2-.9.3-1.4zm0 0"/>
        <path d="M82.1 15.2c-.1-.7-.1-1.3-.2-2C81.4 9.1 77.7.8 67.1 1c-9.1.2-11 7.1-11.5 11.2-.3 1-.5 2.1-.6 3.2-11.8 2.1-10.6 14.1-3.3 14.3-.7-6.3 2.3-10 3.5-11.3 1.1 6.5 6.6 11.5 13.4 11.5 6.4 0 11.8-4.5 13.2-10.5 1.1 2 3 6 2.5 10.3 11.4 0 5.8-13.1-2.2-14.5zM68.6 26.1c-5.3 0-9.7-4.3-9.8-9.6 1.9-.7 3.4-4.1 3.4-4.1s1.2.4 1.2 4.2c2 .7 5.5-5.9 5.5-5.9v5.2c2.2.6 9.2-.2 9.2-.2l.2.2v.3c.1 5.5-4.3 9.9-9.7 9.9zm0 0"/>
        <path d="M71.4 30.3H60.8l-14.1 17-13.6-16.8H17.6L1.4 48.3l3.4 3.5 11.6-9.9v19.3h2.3v14.6h-1.4v1.7H24V61.2h2.5v16.3h6.8v-1.7h-1.5V61.2h2.8V42.3l9.3 9.5 3.8-.9 2.1.5 10.5-12 .6 4.7L51.2 61h11.2v14.6H61v1.7h6.7V61h2.5v16.3H77v-1.7h-1.5V61h8.7l-8.6-16.9.5-5.8 8.2 11 5.5-1.4-13.1-17.6z"/>
    </g>
</symbol><symbol id="icon-adv-9" viewBox="0 0 75.7 81.3">
    <circle cx="41.8" cy="40.6" r="81" stroke-width="2" stroke-miterlimit="10"/>
    <path d="M22 53.2h43.7c5 0 9-4 9-9V25.6v-.1-.1-.1-.1-.1-.1-.1-.2-.1s0-.1-.1-.1l-.1-.1-.1-.1-.1-.1-.1-.1-.1-.1-.1-.1s-.1 0-.1-.1h-.1s-.1 0-.1-.1l-.2-.1h-.1-.1-.1-.1-.1-.1L17.4 16V8.3v-.2V8v-.1-.1-.2-.1s0-.1-.1-.1v-.1s0-.1-.1-.1v-.1V7s0-.1-.1-.1l-.1-.1-.1-.1h-.1s-.1 0-.1-.1l-.1-.1c-.1 0-.1-.1-.2-.1l-12-5.1C3.3.8 2 1.3 1.5 2.5c-.5 1.1 0 2.4 1.2 2.9L13 9.7v48.2c0 4.6 3.4 8.3 7.8 8.9-.8 1.3-1.3 2.9-1.3 4.6 0 4.9 4 8.9 8.9 8.9s8.9-4 8.9-8.9c0-1.6-.4-3.2-1.2-4.5h19.8c-.8 1.3-1.2 2.9-1.2 4.5 0 4.9 4 8.9 8.9 8.9s8.9-4 8.9-8.9-4-8.9-8.9-8.9H22c-2.5 0-4.6-2.1-4.6-4.6v-6c1.3.8 2.9 1.3 4.6 1.3zm10.9 18.2c0 2.5-2 4.5-4.5 4.5s-4.5-2-4.5-4.5 2-4.5 4.5-4.5 4.5 2 4.5 4.5zm35.1 0c0 2.5-2 4.5-4.5 4.5s-4.5-2-4.5-4.5 2-4.5 4.5-4.5 4.5 2 4.5 4.5zm-2.3-22.6" stroke-width="2" stroke-miterlimit="10"/>
</symbol><symbol id="icon-close" viewBox="0 0 31.5 31.5">
    <style>
        .st0{fill:#e8603c}
    </style>
    <path class="st0" d="M31.2 3.8c.5.5.5 1.2 0 1.7l-9.4 9.4c-.5.5-.5 1.2 0 1.7l9.4 9.4c.5.5.5 1.2 0 1.7l-3.4 3.4c-.5.5-1.2.5-1.7 0l-9.4-9.4c-.5-.5-1.2-.5-1.7 0l-9.4 9.4c-.5.5-1.2.5-1.7 0L.5 27.7C0 27.2 0 26.5.5 26l9.4-9.4c.5-.5.5-1.2 0-1.7L.4 5.5C-.1 5-.1 4.3.4 3.8L3.8.4C4.3-.1 5-.1 5.5.4l9.4 9.4c.5.5 1.2.5 1.7 0L26 .4c.5-.5 1.2-.5 1.7 0l3.5 3.4z"/>
</symbol><symbol id="icon-fb" viewBox="0 0 45.9 45.9">
    <path d="M22.9 0c12.7 0 22.9 10.3 22.9 22.9 0 12.7-10.3 22.9-22.9 22.9S0 35.6 0 22.9C0 10.3 10.3 0 22.9 0zm-3.4 22.9c.1.1 0 .7 0 .8V36h5.4v-9.8V23v-.1h3.6l.5-4.5h-4.1v-2c0-.6 0-1.4.3-1.7l3.7-.4V9.8h-4.4c-1.4.1-2.5.5-3.3 1.2-1.2 1.9-1.6.3-1.6 7.4h-2.7v4.5h2.6z" fill-rule="evenodd" clip-rule="evenodd"/>
</symbol><symbol id="icon-in" viewBox="0 0 45.9 45.9">
    <g fill-rule="evenodd" clip-rule="evenodd">
        <path d="M24.2 19.3z"/>
        <path d="M22.9 0C10.3 0 0 10.3 0 22.9c0 12.7 10.3 22.9 22.9 22.9 12.7 0 22.9-10.3 22.9-22.9C45.9 10.3 35.6 0 22.9 0zM17 31.3h-4.6v-14H17v14zm-2.3-15.9c-1.6 0-2.6-1.1-2.6-2.4 0-1.4 1-2.4 2.6-2.4s2.6 1 2.6 2.4c0 1.3-1 2.4-2.6 2.4zm19.1 15.9h-4.7v-7.5c0-1.9-.7-3.2-2.4-3.2-1.3 0-2 .9-2.4 1.7-.1.3-.2.7-.2 1.1v7.8h-4.7s.1-12.7 0-14h4.7v2c.6-.9 1.7-2.3 4.2-2.3 3.1 0 5.4 2 5.4 6.3v8.1z"/>
    </g>
</symbol><symbol id="icon-logo-footer" viewBox="0 0 124 218.4">
    <path d="M62 154.4c-.1 0-.2 0-.2-.1L0 66.1c0-.1 0-.2.1-.3.1-.1.3-.1.3.1L62.2 154c.1.1.1.3-.1.3 0 .1 0 .1-.1.1z"/>
    <path d="M62 154.4c-.1 0-.1 0-.2-.1L.1 80.8c-.1-.1-.1-.3 0-.4.1-.1.3-.1.4 0L62.2 154c.1.1.1.3 0 .4H62z"/>
    <path d="M62 154.4c-.1 0-.1 0-.2-.1L.1 92.6c-.1-.1-.1-.3 0-.4s.3-.1.4 0L62.2 154c.1.1.1.3 0 .4H62z"/>
    <path d="M62 154.4c-.1 0-.1 0-.2-.1L.1 102.6c-.1-.1-.1-.2 0-.4.1-.1.2-.1.4 0L62.2 154c.1.1.1.2 0 .4H62z"/>
    <path d="M62 154.4h-.1L.1 111.1c-.1 0-.1-.2-.1-.3s.2-.1.3-.1L62.1 154c.1.1.1.2.1.3 0 .1-.1.1-.2.1z"/>
    <path d="M62 154.4h-.1L.1 118.7c-.1 0-.1-.2-.1-.3.1-.1.2-.2.3-.1L62.1 154c.1.1.2.2.1.3 0 .1-.1.1-.2.1z"/>
    <path d="M62 154.4h-.1L.1 125.6c-.1 0-.1-.2-.1-.3.1-.1.2-.2.3-.1L62.1 154c.1.1.2.2.1.3 0 .1-.1.1-.2.1z"/>
    <path d="M62 154.4s-.1 0 0 0L.2 131.9c-.1 0-.2-.2-.1-.3s.2-.2.3-.1L62.2 154c.1 0 .2.2.1.3-.1.1-.2.1-.3.1z"/>
    <path d="M62 154.4L.2 137.9c-.1 0-.2-.2-.2-.3 0-.1.2-.2.3-.2l61.8 16.5c.1 0 .2.2.2.3-.1.2-.2.2-.3.2z"/>
    <path d="M62 154.4L.2 143.5c-.1 0-.2-.2-.2-.3 0-.1.2-.2.3-.2L62 153.9c.1 0 .2.2.2.3 0 .1-.1.2-.2.2z"/>
    <path d="M62 154.4L.2 149c-.1 0-.2-.1-.2-.3s.1-.2.3-.2l61.8 5.4c.1 0 .2.1.2.3-.1.1-.2.2-.3.2z"/>
    <path d="M62 154.4H.3c-.1 0-.3-.1-.3-.3s.1-.3.3-.3H62c.1 0 .3.1.3.3s-.2.3-.3.3z"/>
    <path d="M123.8 154.4H62c-.1 0-.3-.1-.3-.3s.1-.3.3-.3h61.8c.1 0 .3.1.3.3s-.2.3-.3.3z"/>
    <path d="M62 154.4c-.1 0-.2-.1-.2-.2s.1-.3.2-.3l61.8-5.4c.1 0 .3.1.3.2s-.1.3-.2.3L62 154.4z"/>
    <path d="M62 154.4c-.1 0-.2-.1-.2-.2s.1-.3.2-.3l61.8-10.9c.1 0 .3.1.3.2s-.1.3-.2.3L62 154.4z"/>
    <path d="M62 154.4c-.1 0-.2-.1-.2-.2s0-.3.2-.3l61.8-16.5c.1 0 .3 0 .3.2 0 .1 0 .3-.2.3L62 154.4z"/>
    <path d="M62 154.4c-.1 0-.2-.1-.2-.2s0-.3.1-.3l61.7-22.5c.1 0 .3 0 .3.1s0 .3-.1.3L62 154.4c.1 0 0 0 0 0z"/>
    <path d="M62 154.4c-.1 0-.2-.1-.2-.1-.1-.1 0-.3.1-.3l61.8-28.8c.1-.1.3 0 .3.1.1.1 0 .3-.1.3l-61.8 28.8H62z"/>
    <path d="M62 154.4c-.1 0-.2 0-.2-.1-.1-.1 0-.3.1-.3l61.8-35.7c.1-.1.3 0 .3.1.1.1 0 .3-.1.3l-61.8 35.7H62z"/>
    <path d="M62 154.4c-.1 0-.2 0-.2-.1-.1-.1-.1-.3.1-.3l61.8-43.2c.1-.1.3-.1.3.1.1.1.1.3-.1.3l-61.8 43.2H62z"/>
    <path d="M62 154.4c-.1 0-.1 0-.2-.1s-.1-.3 0-.4l61.7-51.8c.1-.1.3-.1.4 0 .1.1.1.3 0 .4l-61.8 51.8c0 .1 0 .1-.1.1z"/>
    <path d="M62 154.4c-.1 0-.1 0-.2-.1s-.1-.3 0-.4l61.8-61.8c.1-.1.3-.1.4 0s.1.3 0 .4l-61.8 61.8c-.1.1-.1.1-.2.1z"/>
    <path d="M62 154.4c-.1 0-.1 0-.2-.1s-.1-.2 0-.4l61.8-73.6c.1-.1.2-.1.4 0 .1.1.1.2 0 .4l-61.8 73.6c-.1.1-.1.1-.2.1z"/>
    <path d="M62 154.4h-.1c-.1-.1-.1-.2-.1-.3l61.7-88.2c.1-.1.2-.1.3-.1.1.1.1.2.1.3l-61.8 88.2c.1.1 0 .1-.1.1z"/>
    <path d="M62 154.4h-.1c-.1-.1-.2-.2-.1-.3l61.7-107c.1-.1.2-.2.3-.1.1.1.2.2.1.3l-61.8 107c.1.1 0 .1-.1.1z"/>
    <path d="M62 154.4s-.1 0 0 0c-.2-.1-.3-.2-.2-.3l46.2-127c0-.1.2-.2.3-.1.1 0 .2.2.1.3l-46.2 127c0 .1-.1.1-.2.1z"/>
    <path d="M62 154.4c-.2 0-.3-.2-.2-.3L97.4 20.9c0-.1.2-.2.3-.2.1 0 .2.2.2.3L62.2 154.2c0 .2-.1.2-.2.2z"/>
    <path d="M62 154.4c-.2 0-.3-.2-.2-.3L86.4 14.5c0-.1.1-.2.3-.2.1 0 .2.2.2.3L62.2 154.2c0 .1-.1.2-.2.2z"/>
    <path d="M62 154.4c-.2 0-.3-.1-.2-.3L74.6 7.7c0-.1.1-.2.3-.2.1 0 .2.1.2.3L62.2 154.2c0 .1-.1.2-.2.2z"/>
    <path d="M62 154.4c-.1 0-.3-.1-.3-.3V.3c.1-.2.2-.3.3-.3.1 0 .3.1.3.3v153.9c0 .1-.2.2-.3.2z"/>
    <path d="M62 154.4c-.1 0-.2-.1-.2-.2L37.1 14.6c0-.1.1-.3.2-.3s.3.1.3.2l24.6 139.6c.1.2 0 .3-.2.3z"/>
    <path d="M62 154.4c-.1 0-.2-.1-.2-.2L26.1 21.1c0-.1 0-.3.2-.3.1 0 .3 0 .3.2l35.7 133.2s-.1.2-.3.2z"/>
    <path d="M62 154.4c-.1 0-.2-.1-.2-.2l-46.2-127c0-.1 0-.3.1-.3s.3 0 .3.1l46.2 127c.1.2 0 .4-.2.4.1 0 0 0 0 0z"/>
    <path d="M62 154.4c-.1 0-.2-.1-.2-.1L5.3 33.2c-.1-.1 0-.3.1-.3.1-.1.3 0 .3.1l56.5 121.1c.1.1 0 .3-.1.3H62z"/>
    <path d="M62 154.4c-.1 0-.2-.1-.2-.2L48.9 7.7c0-.1.1-.3.2-.3s.3.1.3.2l12.8 146.5c.1.2 0 .3-.2.3z"/>
    <path d="M62 154.4c-.1 0-.2 0-.2-.1L0 47.4c0-.2 0-.3.1-.4.1-.1.3 0 .3.1l61.8 107c.1.1 0 .3-.1.3H62z"/>
    <path d="M62 154.4h-.1c-.1-.1-.2-.2-.1-.3L118.2 33c.1-.1.2-.2.3-.1.1.1.2.2.1.3L62.2 154.3c0 .1-.1.1-.2.1z"/>
    <path d="M5.7 169.8H0v-2.1h14v2.1H8.2v16.8H5.7v-16.8z"/>
    <path d="M38.7 177.7h-7.3v6.8h8.2v2H29v-18.9h10.2v2h-7.8v6h7.3v2.1z"/>
    <path d="M56.4 183.6c1.1.7 2.7 1.2 4.4 1.2 2.5 0 3.9-1.3 3.9-3.2 0-1.8-1-2.8-3.6-3.8-3.1-1.1-5-2.7-5-5.4 0-2.9 2.4-5.1 6.1-5.1 1.9 0 3.3.4 4.2.9l-.7 2c-.6-.3-1.9-.9-3.6-.9-2.6 0-3.6 1.5-3.6 2.8 0 1.8 1.1 2.6 3.8 3.6 3.2 1.2 4.8 2.8 4.8 5.5 0 2.9-2.2 5.4-6.6 5.4-1.8 0-3.8-.5-4.8-1.2l.7-1.8z"/>
    <path d="M83.6 167.7H86v16.8h8.1v2H83.6v-18.8z"/>
    <path d="M112.7 180.6l-2 5.9h-2.5l6.4-18.9h2.9l6.4 18.9h-2.6l-2-5.9h-6.6zm6.2-1.9l-1.8-5.4c-.4-1.2-.7-2.4-1-3.4h-.1c-.3 1.1-.6 2.3-1 3.4l-1.8 5.5h5.7z"/>
    <path d="M3.5 199.2v7.9h9.1v-7.9h2.5v18.9h-2.5v-8.9H3.5v8.9H1.1v-18.9h2.4z"/>
    <path d="M44 208.5c0 6.5-3.9 9.9-8.8 9.9-5 0-8.5-3.9-8.5-9.6 0-6 3.7-9.9 8.8-9.9 5.1 0 8.5 4 8.5 9.6zm-14.7.3c0 4 2.2 7.6 6 7.6 3.9 0 6.1-3.6 6.1-7.8 0-3.8-2-7.7-6-7.7-4.1 0-6.1 3.7-6.1 7.9z"/>
    <path d="M58 199.2v11.2c0 4.2 1.9 6 4.4 6 2.8 0 4.6-1.8 4.6-6v-11.2h2.5v11c0 5.8-3.1 8.2-7.1 8.2-3.9 0-6.8-2.2-6.8-8.1v-11.1H58z"/>
    <path d="M84.7 215.1c1.1.7 2.7 1.2 4.4 1.2 2.5 0 3.9-1.3 3.9-3.2 0-1.8-1-2.8-3.6-3.8-3.1-1.1-5-2.7-5-5.4 0-2.9 2.4-5.1 6.1-5.1 1.9 0 3.3.4 4.2.9l-.7 2c-.6-.3-1.9-.9-3.6-.9-2.6 0-3.6 1.5-3.6 2.8 0 1.8 1.1 2.6 3.8 3.6 3.2 1.2 4.8 2.8 4.8 5.5 0 2.9-2.2 5.4-6.6 5.4-1.8 0-3.8-.5-4.8-1.2l.7-1.8z"/>
    <path d="M121.5 209.2h-7.3v6.8h8.2v2h-10.6v-18.9H122v2h-7.8v6h7.3v2.1z"/>
</symbol><symbol id="icon-moon" viewBox="0 0 146.2 159.7">
    <path d="M100.3 154.9c-6.7 1.8-13.6 2.7-20.4 2.7-35.1 0-66-23.7-75.1-57.5C-6.5 58.7 18.1 15.8 59.5 4.6c3-.8 6-1.4 9.1-1.9-14.7 19.2-19.6 44-13.2 67.7 9.2 33.9 40.1 57.6 75.3 57.6 3.7 0 7.3-.3 11-.8-10.4 13.5-24.8 23.3-41.4 27.7z" stroke-width="4" stroke-miterlimit="10"/>
    <path stroke-width="4" stroke-miterlimit="10" d="M82.8 49.5l13.4-3.8 4.1-13.4 3.9 13.4 13.3 4.2-13.4 3.8L100 67l-3.9-13.4z"/>
    <path stroke-width="4" stroke-miterlimit="10" d="M112 72.5l9.4-3.1 2.5-9.5 3.1 9.4 9.5 2.5-9.4 3.1-2.5 9.5-3.1-9.4z"/>
</symbol><symbol id="icon-stock" viewBox="0 0 392 392">
    <path d="M305.8 75.9c7.4-8 12.1-18.9 12.1-30.9 0-25-20-45-44.2-45-18.4 0-60.8 27.5-77.8 52.2C178.4 27.5 136.1.8 118.5.8c-24.2 0-44.2 20-44.2 45 0 11.6 4.3 22.1 11.3 30H0v107.6h23.4V392h345.4V183.5H392V75.9h-86.2zm-32.2-59.2c15 0 27.5 12.5 27.5 29.2 0 14.1-9.8 26.2-22.6 28.7h-67.7c-4.3-1.3-5.7-2.8-5.7-3.7.1-14.2 50.1-54.2 68.5-54.2zm-155.2 0c17.5 0 68.4 40 68.4 54.2 0 1.3-3 2.7-5.1 3.7h-68.2C100.8 72.1 91 60 91 45.9c-.1-15.9 12.4-29.2 27.4-29.2zm27.5 358.6H40V183.5h105.9v191.8zm0-207.6H16.7v-75H146l-.1 75zm83.4 207.6h-66.7V92.6h66.7v282.7zm122.6 0H246V183.5h105.9v191.8zm23.3-207.6H246v-75h129.3l-.1 75zm0 0"/>
</symbol><symbol id="icon-sun" viewBox="0 0 175.5 175.5">
    <circle cx="87.7" cy="87.7" r="52.3" stroke-width="4" stroke-miterlimit="10"/>
    <g stroke-width="4" stroke-miterlimit="10">
        <path d="M87.7 0v23.1"/>
        <path d="M87.7 152.4v23.1"/>
        <g>
            <path d="M175.5 87.7h-23.1"/>
            <path d="M23.1 87.7H0"/>
        </g>
    </g>
    <g stroke-width="4" stroke-miterlimit="10">
        <path d="M149.8 25.7L133.5 42"/>
        <path d="M42 133.5l-16.3 16.3"/>
        <g>
            <path d="M149.8 149.8l-16.3-16.3"/>
            <path d="M42 42L25.7 25.7"/>
        </g>
    </g>
</symbol><symbol id="icon-vk" viewBox="0 0 45.9 45.9">
    <path d="M22.9 0c12.7 0 22.9 10.3 22.9 22.9 0 12.7-10.3 22.9-22.9 22.9C10.3 45.9 0 35.6 0 22.9 0 10.3 10.3 0 22.9 0zM12.4 10.4h13.2c2.2 0 3.9.6 5.1 1.8 1.2 1.2 1.8 2.7 1.8 4.4 0 1.5-.4 2.8-1.3 3.8-.6.7-1.4 1.3-2.5 1.7 1.6.4 2.9 1.2 3.6 2.2.8 1.1 1.2 2.4 1.2 4 0 1.3-.3 2.5-.8 3.5-.6 1-1.3 1.9-2.3 2.5-.6.4-1.5.6-2.7.8-1.6.2-2.6.3-3.2.3H12.4v-25zm7.1 9.8h3.1c1.1 0 1.9-.2 2.3-.6.4-.4.6-1 .6-1.8 0-.7-.2-1.3-.6-1.7-.4-.4-1.2-.6-2.3-.6h-3.1v4.7zm0 9.9h3.6c1.2 0 2.1-.2 2.6-.7.5-.5.8-1.1.8-1.9 0-.7-.2-1.3-.7-1.8-.5-.5-1.4-.7-2.6-.7h-3.6v5.1h-.1z" fill-rule="evenodd" clip-rule="evenodd"/>
</symbol></svg>