<svg xmlns="http://www.w3.org/2000/svg" xmlns:xlink="http://www.w3.org/1999/xlink" preserveAspectRatio="xMidYMid" width="243" height="119" viewBox="0 0 243 119">
  <defs>
    <style>
      .cls-1, .cls-2 {
        fill: #fff;
        fill-rule: evenodd;
      }

      .cls-2 {
        opacity: 0.3;
      }
    </style>
  </defs>
  <g>
    <path d="M201.343,94.862 L195.125,105.041 L198.658,107.097 L206.298,94.105 C206.627,93.530 206.627,92.706 206.298,92.132 C205.887,91.474 205.555,91.413 204.814,91.413 L161.422,91.413 C161.422,92.812 160.014,93.546 159.686,94.862 L170.099,94.862 L164.244,105.123 L167.776,107.180 L175.307,94.862 L185.816,94.851 L179.948,104.845 L183.501,106.910 L190.610,94.851 L201.343,94.862 Z" class="cls-1"/>
    <path d="M138.126,69.811 C126.656,69.811 117.329,79.131 117.329,90.582 C117.329,92.592 117.630,94.528 118.165,96.367 L99.657,96.367 C99.665,96.154 99.688,95.945 99.688,95.729 C99.688,91.127 97.676,86.998 94.494,84.136 C97.188,82.030 101.524,79.429 107.404,78.151 L107.404,76.518 C100.803,77.870 96.041,80.777 93.186,83.077 C90.612,81.219 87.463,80.110 84.052,80.110 C82.201,80.110 80.434,80.449 78.789,81.042 C78.962,77.007 79.461,72.757 80.806,72.248 C87.428,69.786 96.057,68.312 103.015,67.690 L103.015,54.880 C103.015,53.081 102.117,52.664 101.991,52.613 C101.134,52.373 100.636,51.482 100.879,50.628 C101.122,49.776 102.001,49.284 102.866,49.521 C104.117,49.875 106.233,51.399 106.233,54.880 L106.233,67.452 C106.725,67.424 107.190,67.407 107.652,67.389 L111.416,51.210 C111.564,50.582 112.068,50.102 112.702,49.991 C113.478,49.855 131.857,46.663 145.680,49.443 C146.550,49.618 147.116,50.465 146.942,51.336 C146.767,52.206 145.923,52.774 145.046,52.594 C144.854,52.556 144.654,52.529 144.461,52.494 L146.999,67.241 C147.003,67.272 146.992,67.302 146.997,67.335 L147.567,67.335 C150.608,67.335 151.214,69.295 151.214,69.295 L153.078,73.961 L151.528,74.730 C147.907,71.667 143.229,69.811 138.126,69.811 ZM88.350,72.867 C87.939,72.706 87.473,72.909 87.305,73.321 L86.000,76.644 C85.838,77.056 86.044,77.522 86.455,77.686 C86.552,77.722 86.650,77.740 86.751,77.740 C87.070,77.740 87.373,77.547 87.499,77.231 L88.805,73.909 C88.967,73.496 88.763,73.028 88.350,72.867 ZM92.142,72.867 C91.735,72.706 91.264,72.909 91.099,73.321 L89.793,76.644 C89.631,77.056 89.836,77.522 90.249,77.686 C90.346,77.722 90.445,77.740 90.544,77.740 C90.866,77.740 91.167,77.547 91.293,77.231 L92.597,73.909 C92.760,73.496 92.557,73.028 92.142,72.867 ZM126.672,53.524 L114.181,53.524 L110.626,68.816 L110.626,80.509 L116.453,80.502 C118.387,75.313 122.535,71.605 126.672,69.463 L126.672,53.524 ZM141.372,53.524 L129.888,53.524 L129.888,68.132 C131.154,67.718 132.375,67.420 133.447,67.335 L143.749,67.335 L141.372,53.524 ZM96.934,95.780 C96.934,102.877 91.158,108.653 84.052,108.653 C76.948,108.653 71.166,102.877 71.166,95.780 C71.164,88.683 76.948,82.910 84.052,82.910 C91.158,82.910 96.934,88.683 96.934,95.780 ZM77.987,95.780 C77.987,99.125 80.703,101.837 84.052,101.837 C87.401,101.837 90.115,99.126 90.115,95.780 C90.115,92.435 87.402,89.725 84.052,89.725 C80.703,89.725 77.987,92.434 77.987,95.780 ZM138.125,72.512 C148.100,72.512 156.215,80.616 156.215,90.582 C156.215,100.547 148.098,108.654 138.125,108.654 C128.149,108.654 120.030,100.546 120.030,90.582 C120.029,80.616 128.149,72.512 138.125,72.512 ZM138.122,100.758 C143.739,100.758 148.310,96.194 148.310,90.581 C148.310,84.968 143.740,80.403 138.122,80.403 C132.505,80.403 127.936,84.969 127.936,90.581 C127.936,96.193 132.505,100.758 138.122,100.758 ZM138.122,83.617 C141.968,83.617 145.091,86.742 145.091,90.580 C145.091,94.418 141.967,97.542 138.122,97.542 C134.277,97.542 131.154,94.418 131.154,90.581 C131.152,86.742 134.277,83.617 138.122,83.617 Z" class="cls-1"/>
    <path d="M216.063,110.647 L201.343,103.482 L183.985,112.103 L163.157,103.482 L143.195,106.491 L164.893,100.034 L183.203,108.648 L201.343,100.034 L216.106,108.285 L227.379,101.758 L239.529,112.103 L228.246,103.425 L216.063,110.647 ZM183.985,115.552 L201.343,106.931 L216.204,113.870 L227.676,106.491 C227.676,106.491 242.999,118.859 243.000,119.000 C243.000,119.144 227.528,108.249 227.528,108.249 L216.221,116.536 L201.343,110.379 C201.343,110.379 184.144,118.930 183.985,119.000 C183.969,119.007 183.929,119.003 183.929,119.003 L161.422,110.379 C161.422,110.379 136.545,115.547 133.650,115.552 C92.894,115.623 71.596,114.717 71.591,113.837 C71.588,112.957 91.156,112.175 131.915,112.103 C139.105,112.091 163.157,106.931 163.157,106.931 L183.985,115.552 ZM98.936,106.931 C98.930,106.050 109.350,105.206 109.350,105.206 C109.350,105.206 119.361,105.610 119.367,106.491 C119.372,107.371 109.350,108.655 109.350,108.655 C109.350,108.655 98.940,107.811 98.936,106.931 ZM34.700,108.679 C12.670,108.679 -0.001,107.904 -0.001,106.950 C-0.001,105.996 12.670,105.220 34.700,105.220 C56.730,105.220 71.137,105.996 71.137,106.950 C71.137,107.904 56.730,108.679 34.700,108.679 ZM38.071,112.371 C56.223,112.300 67.491,112.957 67.499,113.837 C67.509,114.717 56.256,115.488 38.104,115.559 C19.951,115.631 13.889,114.974 13.882,114.094 C13.873,113.214 19.919,112.442 38.071,112.371 Z" class="cls-2"/>
    <path d="M210.940,24.927 C207.637,24.871 204.965,24.274 204.976,23.591 C204.990,22.910 207.679,22.400 210.982,22.455 C214.285,22.510 216.955,23.108 216.945,23.790 C216.932,24.473 214.241,24.982 210.940,24.927 ZM201.732,15.997 C201.225,15.533 201.993,13.904 203.449,12.360 C204.904,10.815 206.498,9.939 207.004,10.401 C207.513,10.867 206.742,12.497 205.287,14.041 C203.831,15.586 202.239,16.462 201.732,15.997 ZM194.327,32.582 C189.455,32.582 185.505,28.691 185.505,23.890 C185.505,19.090 189.455,15.199 194.327,15.199 C199.200,15.199 203.151,19.090 203.151,23.890 C203.151,28.691 199.200,32.582 194.327,32.582 ZM194.226,12.801 C193.534,12.801 192.973,9.936 192.973,6.406 C192.973,2.876 193.534,0.012 194.226,0.012 C194.919,0.012 195.482,2.876 195.482,6.406 C195.482,9.936 194.919,12.801 194.226,12.801 ZM182.378,13.857 C180.530,12.368 179.386,10.730 179.826,10.203 C180.262,9.674 182.118,10.455 183.965,11.944 C185.814,13.433 186.958,15.070 186.518,15.597 C186.081,16.127 184.225,15.346 182.378,13.857 ZM183.274,23.591 C183.274,24.274 180.320,24.827 176.680,24.827 C173.043,24.827 170.090,24.274 170.090,23.591 C170.090,22.910 173.043,22.354 176.680,22.354 C180.320,22.354 183.274,22.910 183.274,23.591 ZM186.518,31.383 C187.009,31.866 186.133,33.511 184.566,35.055 C182.998,36.599 181.328,37.462 180.839,36.979 C180.349,36.496 181.224,34.852 182.792,33.307 C184.360,31.763 186.029,30.901 186.518,31.383 ZM194.226,34.382 C194.919,34.370 195.527,37.091 195.582,40.456 C195.637,43.820 195.121,46.559 194.430,46.570 C193.737,46.582 193.128,43.860 193.074,40.495 C193.017,37.131 193.534,34.393 194.226,34.382 ZM205.998,33.242 C207.398,34.731 208.121,36.316 207.614,36.780 C207.105,37.243 205.556,36.411 204.158,34.921 C202.757,33.432 202.035,31.847 202.542,31.383 C203.050,30.920 204.599,31.752 205.998,33.242 Z" class="cls-2"/>
  </g>
</svg>
