<svg viewBox="0 -60 512 512" xmlns="http://www.w3.org/2000/svg"><path d="m497.511719 145.519531c8.304687-2.066406 14.488281-9.5625 14.488281-18.5 0-8.371093-5.425781-15.484375-12.9375-18.050781v-14.667969c7.511719-2.5625 12.9375-9.675781 12.9375-18.046875 0-8.933594-6.183594-16.433594-14.488281-18.5-2.414063-32.246094-29.402344-57.753906-62.257813-57.753906h-56.652344c-4.144531 0-7.503906 3.355469-7.503906 7.5s3.359375 7.5 7.503906 7.5h56.652344c24.378906 0 44.523438 18.480469 47.160156 42.171875h-242.671874c2.636718-23.691406 22.78125-42.171875 47.164062-42.171875h56.691406c4.140625 0 7.5-3.355469 7.5-7.5s-3.359375-7.5-7.5-7.5h-56.691406c-32.855469 0-59.847656 25.503906-62.261719 57.753906-8.304687 2.066406-14.488281 9.5625-14.488281 18.5 0 8.371094 5.425781 15.480469 12.9375 18.046875v14.679688c-5.191406 1.78125-9.394531 5.746093-11.484375 10.828125-1.25.429687-2.464844.992187-3.621094 1.6875-11.289062-9.71875-25.5625-15.039063-40.703125-15.039063-16.722656 0-32.40625 6.472657-44.160156 18.226563l-104.898438 104.898437c-11.753906 11.753907-18.226562 27.4375-18.226562 44.164063 0 15.136718 5.316406 29.410156 15.039062 40.699218-4.410156 7.335938-3.480468 17.007813 2.839844 23.328126 3.71875 3.71875 8.605469 5.578124 13.492188 5.578124 2.886718 0 5.769531-.667968 8.417968-1.964843l10.371094 10.371093c-3.5 7.125-2.304687 15.992188 3.613282 21.910157 3.59375 3.59375 8.386718 5.574219 13.492187 5.574219 3.53125 0 6.898437-.964844 9.835937-2.738282 11.664063 10.042969 26.171876 15.078125 40.699219 15.078125 15.988281 0 31.984375-6.089843 44.160157-18.261719l49.992187-49.996093c2.410156 5.164062 7.054687 9.066406 12.691406 10.464843 2.414063 32.25 29.402344 57.753907 62.257813 57.753907h56.695312c4.140625 0 7.5-3.355469 7.5-7.5s-3.359375-7.5-7.5-7.5h-56.695312c-24.378906 0-44.523438-18.480469-47.160156-42.167969h242.671874c-2.636718 23.6875-22.78125 42.167969-47.160156 42.167969h-56.65625c-4.140625 0-7.5 3.355469-7.5 7.5s3.359375 7.5 7.5 7.5h56.65625c32.851563 0 59.84375-25.503907 62.257813-57.753907 8.304687-2.0625 14.488281-9.5625 14.488281-18.5 0-8.371093-5.425781-15.484374-12.9375-18.046874v-14.667969c7.511719-2.566407 12.9375-9.679688 12.9375-18.050781 0-8.933594-6.183594-16.433594-14.488281-18.5-1.625-21.722657-14.394531-40.386719-32.609375-50.25 18.214844-9.867188 30.984375-28.53125 32.609375-50.253907zm-4.59375-14.417969h-257.257813c-.003906-.019531-.015625-.035156-.019531-.050781-.214844-.566406-.457031-1.121093-.726563-1.664062-.027343-.058594-.050781-.113281-.078124-.167969-.269532-.53125-.566407-1.054688-.886719-1.5625-.039063-.058594-.070313-.121094-.109375-.179688-.308594-.480468-.648438-.945312-1.007813-1.402343-.058593-.078125-.113281-.160157-.175781-.238281-.375-.464844-.78125-.914063-1.210938-1.351563-.046874-.046875-.085937-.101563-.132812-.148437-.042969-.042969-.089844-.078126-.132812-.117188-.441407-.4375-.898438-.847656-1.371094-1.230469-.019532-.015625-.035156-.035156-.054688-.050781h263.164063c2.210937 0 4.082031 1.867188 4.082031 4.082031 0 2.210938-1.871094 4.082031-4.082031 4.082031zm-254.824219-23.164062v-12.601562h245.96875v12.601562zm-8.851562-35.765625h263.675781c2.210937 0 4.082031 1.871094 4.082031 4.082031 0 2.214844-1.871094 4.082032-4.082031 4.082032h-263.675781c-2.214844 0-4.082032-1.867188-4.082032-4.082032 0-2.210937 1.867188-4.082031 4.082032-4.082031zm-214.242188 201.574219c0-12.71875 4.914062-24.636719 13.832031-33.554688l104.898438-104.898437c8.921875-8.921875 20.835937-13.832031 33.554687-13.832031 10.925782 0 21.261719 3.625 29.613282 10.300781l-171.59375 171.59375c-6.675782-8.351563-10.304688-18.683594-10.304688-29.609375zm20.214844 52.457031-.957032.960937c-1.566406 1.5625-4.207031 1.5625-5.773437 0-1.5625-1.5625-1.5625-4.207031 0-5.773437l186.449219-186.445313c.78125-.78125 1.832031-1.175781 2.886718-1.175781.78125 0 1.5625.21875 2.234376.652344.011718.007813.027343.019531.039062.027344.214844.144531.421875.308593.609375.496093.183594.179688.339844.382813.480469.589844.019531.03125.039062.058594.058594.089844.273437.429688.457031.902344.554687 1.390625.003906.015625.007813.03125.007813.042969.042968.238281.066406.480468.070312.726562 0 .035156 0 .066406-.003906.101563-.011719 1.03125-.398438 2.0625-1.167969 2.828125l-.957031.960937zm15.914062 5.304687 173.921875-173.921874 3.769531 3.769531c.003907.003906.003907.003906.007813.007812l5.128906 5.128907-173.921875 173.925781zm19.023438 31.550782c-1.027344 1.027344-2.25 1.183594-2.886719 1.183594s-1.855469-.152344-2.886719-1.183594c-1.5625-1.5625-1.5625-4.207032 0-5.773438l186.449219-186.445312c.183594-.183594.386719-.34375.59375-.484375.023437-.015625.046875-.03125.070313-.046875.667968-.425782 1.441406-.644532 2.21875-.644532.78125 0 1.558593.21875 2.226562.644532.019531.015625.039062.03125.0625.042968.210938.144532.414062.300782.597656.488282.1875.183594.347656.386718.488282.601562.011718.019532.027343.035156.039062.054688.859375 1.339844.859375 3.117187 0 4.453125-.011719.019531-.027344.039062-.039062.058593-.140626.214844-.300782.417969-.488282.601563zm81.203125-.347656c-17.242188 17.238281-44.554688 18.417968-63.167969 3.527343l171.570312-171.570312c.480469.597656.957032 1.199219 1.410157 1.820312.023437.035157.054687.066407.082031.101563 1.128906 1.570312 2.144531 3.199218 3.058594 4.871094.039062.074218.070312.152343.109375.230468 7.984375 14.839844 7.496093 32.980469-1.269531 47.34375-.003907.003906-.003907.003906-.003907.007813-.964843 1.578125-2.019531 3.09375-3.152343 4.542969-.03125.039062-.0625.078124-.09375.121093-.5.628907-1.015626 1.246094-1.542969 1.847657-.097657.109374-.191407.226562-.292969.335937-.585938.65625-1.183594 1.296875-1.804688 1.917969 0 .003906-.003906.003906-.003906.003906l-12.984375 12.984375s-.003906.003906-.007812.007813l-17.96875 17.96875c-.003907.003906-.007813.007812-.011719.011718zm332.707031-79.101563v12.597656h-244.988281l12.597656-12.597656zm8.855469 35.761719h-263.675781c-2.214844 0-4.082032-1.867188-4.082032-4.082032 0-2.210937 1.867188-4.082031 4.082032-4.082031h263.675781c2.210937 0 4.082031 1.871094 4.082031 4.082031 0 2.214844-1.871094 4.082032-4.082031 4.082032zm0-58.925782c2.210937 0 4.082031 1.867188 4.082031 4.082032 0 2.210937-1.871094 4.078125-4.082031 4.078125h-226.246094l.1875-.1875c.675781-.675781 1.332031-1.371094 1.980469-2.082031.3125-.34375.613281-.695313.917968-1.042969.292969-.339844.589844-.675781.875-1.019531.40625-.488282.800782-.976563 1.1875-1.472657.136719-.167969.269532-.34375.398438-.515625.46875-.605468.929688-1.21875 1.371094-1.84375h219.328125zm-10.503907-15h-200.980468c4.84375-13.5 4.914062-28.34375.1875-41.871093 1.753906-.199219 3.515625-.300781 5.285156-.300781h148.347656c24.378906 0 44.523438 18.480468 47.160156 42.171874zm-47.160156-57.171874h-148.347656c-5.121094 0-10.15625-.828126-15-2.460938-.050781-.066406-.105469-.128906-.15625-.191406-.433594-.550782-.878906-1.09375-1.332031-1.632813-.121094-.136719-.230469-.285156-.351563-.421875.175782-.289062.335938-.585937.492188-.882812.019531-.035156.042968-.074219.0625-.109375.269531-.511719.507812-1.039063.730468-1.574219.03125-.082031.0625-.167969.09375-.25.1875-.46875.351563-.941406.5-1.425781.023438-.082031.050782-.164063.074219-.246094.15625-.53125.289063-1.066406.394531-1.613281.023438-.117188.039063-.234375.058594-.355469.074219-.410156.136719-.824219.179688-1.242187.023437-.1875.042968-.375.058594-.5625.035156-.421876.054687-.84375.0625-1.269532.011718-.734375-.011719-1.472656-.082032-2.203125-.007812-.046875-.019531-.09375-.023437-.144531-.058594-.554688-.136719-1.109375-.246094-1.664062-.070313-.355469-.167969-.707032-.257813-1.058594-.058593-.238282-.105468-.476563-.175781-.714844-.132812-.445312-.296875-.882812-.460937-1.320312-.054688-.136719-.09375-.277344-.148438-.417969-.183594-.453125-.398437-.894531-.617187-1.328125-.0625-.121094-.109375-.242188-.171875-.363282-.222656-.421874-.472656-.832031-.730469-1.238281-.078125-.125-.148437-.257812-.230469-.382812-.265625-.398438-.554687-.78125-.851562-1.160157-.097656-.125-.179688-.253906-.28125-.375-.402344-.496093-.832032-.972656-1.292969-1.433593-.425781-.421875-.867187-.816407-1.324219-1.195313-.140625-.117187-.285156-.222656-.425781-.335937-.328125-.253907-.65625-.5-.996094-.730469-.164062-.109375-.328125-.21875-.496093-.328125-.347657-.222656-.703126-.429687-1.066407-.628906-.144531-.078125-.289062-.164063-.4375-.238281-.507812-.265626-1.023437-.507813-1.550781-.722657-.03125-.011719-.0625-.019531-.089844-.03125-.496094-.199219-1.003906-.371093-1.511718-.527343-.164063-.050782-.328126-.089844-.492188-.136719-.390625-.105469-.78125-.203125-1.171875-.285157-.179687-.035156-.359375-.074218-.539063-.105468-.410156-.074219-.828124-.132813-1.242187-.179688-.144531-.015625-.289063-.035156-.433594-.050781-.5625-.050781-1.128906-.078125-1.695312-.078125-.046875 0-.097657.003906-.144531.003906-.511719.003906-1.023438.027344-1.535157.070313-.164062.015625-.324219.039062-.488281.054687-.402344.046875-.804688.105469-1.207031.175782-.175781.03125-.347657.0625-.523438.097656-.421875.085937-.839843.191406-1.253906.304687-.132813.039063-.265625.066407-.398437.109375-.542969.164063-1.082032.347656-1.613282.5625-.082031.03125-.160156.074219-.242187.105469-.347657.148437-.699219.296875-1.042969.464844l-4.4375-4.433594c-.5-2.003906-.863281-4.03125-1.097656-6.066406h242.664062c-2.632812 23.683593-22.777344 42.167969-47.15625 42.167969zm0 0"/></svg>