<?xml version="1.0" encoding="UTF-8"?><!DOCTYPE svg PUBLIC "-//W3C//DTD SVG 1.1//EN" "http://www.w3.org/Graphics/SVG/1.1/DTD/svg11.dtd"><svg xmlns="http://www.w3.org/2000/svg"><symbol id="icon-bag" viewBox="0 0 128 128">
    <path d="M92.11 119.147c-6.313 0-11.449-5.136-11.449-11.449s5.136-11.449 11.449-11.449 11.45 5.136 11.45 11.449-5.136 11.449-11.45 11.449zm0-18.898c-4.107 0-7.449 3.342-7.449 7.449s3.342 7.449 7.449 7.449c4.108 0 7.45-3.342 7.45-7.449s-3.341-7.449-7.45-7.449z"/>
    <path d="M46.753 119.147c-6.313 0-11.449-5.136-11.449-11.449s5.136-11.449 11.449-11.449 11.449 5.136 11.449 11.449-5.136 11.449-11.449 11.449zm0-18.898c-4.107 0-7.449 3.342-7.449 7.449s3.342 7.449 7.449 7.449 7.449-3.342 7.449-7.449-3.342-7.449-7.449-7.449z"/>
    <path d="M96.625 91.147h-.006l-54.755-.021a9.576 9.576 0 0 1-9.382-7.747L22.351 29.434a2.003 2.003 0 0 1 1.966-2.369h94.649a5.778 5.778 0 0 1 5.39 7.867l-18.81 50.09c-1.422 3.671-5.004 6.125-8.921 6.125zM26.727 31.064l9.686 51.566a5.565 5.565 0 0 0 5.454 4.495l54.755.021h.003a5.596 5.596 0 0 0 5.185-3.553l18.81-50.089a1.765 1.765 0 0 0-.185-1.668 1.757 1.757 0 0 0-1.468-.773h-92.24z"/>
    <path d="M24.314 31.064a2 2 0 0 1-1.945-1.542l-2.408-10.236A5.539 5.539 0 0 0 14.55 15H5.417a2 2 0 0 1 0-4h9.133a9.526 9.526 0 0 1 9.306 7.37l2.408 10.236a2 2 0 0 1-1.95 2.458z"/>
    <path d="M60 44H27.151a2 2 0 0 1 0-4H60a2 2 0 0 1 0 4z"/>
</symbol><symbol id="icon-fb" viewBox="0 0 50 50">
    <title/>
    <path d="M25 50c13.807 0 25-11.193 25-25S38.807 0 25 0 0 11.193 0 25s11.193 25 25 25zm0-3c12.15 0 22-9.85 22-22S37.15 3 25 3 3 12.85 3 25s9.85 22 22 22zm1.815-11V24.999h3.254l.431-3.791h-3.685l.005-1.898c0-.989.1-1.518 1.623-1.518h2.034V14h-3.255c-3.91 0-5.285 1.84-5.285 4.932v2.276H19.5v3.791h2.437V36h4.878zm0 0" fill-rule="evenodd"/>
</symbol><symbol id="icon-insta" viewBox="0 0 512 512">
    <path d="M258.9 507.2C120.4 507.9 6.6 392.6 9.9 252 12.9 118 124 7 262.3 8.7c136.6 1.7 249.4 115.4 245.8 256-3.4 133.5-113.4 243.1-249.2 242.5zM40.2 257.9c.9 122.6 97.9 218.2 214.4 219.9 123.6 1.8 222.8-95.7 223.1-219.5.1-122.7-97.8-218-214.5-220.3-120.1-2.3-222 94.3-223 219.9z"/>
    <path d="M413.2 261.3c0 21.8-.6 43.7.1 65.5 1.5 41.9-28.7 76.9-68.6 86.9-7.8 2-16.1 3.2-24.1 3.3-42.3.3-84.6.7-126.9 0-35.3-.6-63.1-15.6-81.9-46.1-7.2-11.7-10.8-24.7-10.8-38.5-.1-47.5-.5-95 .1-142.4.4-31 15.9-53.9 41.6-70.3 16-10.2 33.7-14.8 52.6-14.8 41.3-.1 82.6-.5 123.9.1 36.4.5 65.2 15.7 83.9 47.7 6.7 11.5 10.1 24.2 10.1 37.7-.1 23.6 0 47.3 0 70.9zm-289.2-.2v68.5c0 9.1 1.7 17.9 6 26 13.8 26 36.4 37.8 64.9 38.2 41.3.6 82.7.3 124 0 7.1 0 14.3-1.2 21.2-3 27.5-7.4 50.9-31.2 50.1-66.1-1-44-.2-88-.2-132 0-9.7-1.8-18.9-6.5-27.4-14.1-25.3-36.6-36.8-64.6-37.2-41.2-.6-82.3-.4-123.5 0-8.2.1-16.6 1.6-24.5 4-26.9 8.3-48.1 32.2-47 64.4.7 21.6.1 43.1.1 64.6z"/>
    <path d="M257.1 183c40.7-.1 73.7 32.4 73.7 72.4-.1 39.8-33 72.3-73.3 72.4-40.6.1-73.5-32.3-73.5-72.5 0-39.9 32.6-72.2 73.1-72.3zm0 23.2c-27.4.1-50 22.4-49.9 49.3s22.6 49 50.2 49.1c27.5 0 50.1-22.1 50.2-49-.1-27.3-22.8-49.5-50.5-49.4z"/>
    <path d="M354.8 176.7c.2 8.5-6.8 16-15.1 16.3-8.5.3-15.8-6.9-15.9-15.8-.1-8.7 6.6-16 14.9-16.3 8.5-.3 15.9 7 16.1 15.8z"/>
</symbol><symbol id="icon-macaron" viewBox="0 -60 512 512">
    <path d="M497.512 145.52c8.304-2.067 14.488-9.563 14.488-18.5 0-8.372-5.426-15.485-12.938-18.051V94.3C506.575 91.738 512 84.625 512 76.254c0-8.934-6.184-16.434-14.488-18.5C495.098 25.508 468.109 0 435.254 0h-56.652a7.5 7.5 0 1 0 0 15h56.652c24.379 0 44.523 18.48 47.16 42.172H239.742C242.38 33.48 262.523 15 286.906 15h56.692c4.14 0 7.5-3.355 7.5-7.5s-3.36-7.5-7.5-7.5h-56.692c-32.855 0-59.847 25.504-62.261 57.754-8.305 2.066-14.489 9.562-14.489 18.5 0 8.371 5.426 15.48 12.938 18.047v14.68a19.185 19.185 0 0 0-11.485 10.828c-1.25.43-2.464.992-3.62 1.687-11.29-9.719-25.563-15.039-40.704-15.039-16.723 0-32.406 6.473-44.16 18.227L18.227 229.582C6.473 241.336 0 257.02 0 273.746c0 15.137 5.316 29.41 15.04 40.7-4.411 7.335-3.481 17.007 2.839 23.327 3.719 3.72 8.605 5.579 13.492 5.579 2.887 0 5.77-.668 8.418-1.965l10.371 10.37c-3.5 7.126-2.305 15.993 3.613 21.911 3.594 3.594 8.387 5.574 13.493 5.574 3.53 0 6.898-.965 9.836-2.738 11.664 10.043 26.171 15.078 40.699 15.078 15.988 0 31.984-6.09 44.16-18.262l49.992-49.996c2.41 5.164 7.055 9.067 12.692 10.465 2.414 32.25 29.402 57.754 62.257 57.754h56.696a7.5 7.5 0 1 0 0-15h-56.696c-24.379 0-44.523-18.48-47.16-42.168h242.672c-2.637 23.688-22.781 42.168-47.16 42.168h-56.656c-4.141 0-7.5 3.355-7.5 7.5s3.359 7.5 7.5 7.5h56.656c32.851 0 59.844-25.504 62.258-57.754 8.304-2.062 14.488-9.562 14.488-18.5 0-8.371-5.426-15.484-12.938-18.047v-14.668c7.512-2.566 12.938-9.68 12.938-18.05 0-8.934-6.184-16.434-14.488-18.5-1.625-21.723-14.395-40.387-32.61-50.25 18.215-9.868 30.985-28.532 32.61-50.254zm-4.594-14.418H235.66c-.004-.02-.015-.036-.02-.051a18.483 18.483 0 0 0-.726-1.664c-.027-.059-.05-.114-.078-.168a19.315 19.315 0 0 0-.887-1.563c-.039-.058-.07-.12-.11-.18-.308-.48-.648-.945-1.007-1.402-.059-.078-.113-.16-.176-.238a18.622 18.622 0 0 0-1.21-1.352c-.048-.046-.087-.101-.133-.148-.043-.043-.09-.078-.133-.117a18.385 18.385 0 0 0-1.371-1.23c-.02-.016-.036-.036-.055-.052h263.164c2.21 0 4.082 1.868 4.082 4.083 0 2.21-1.871 4.082-4.082 4.082zm-254.824-23.165V95.337h245.969v12.601zm-8.852-35.765h263.676c2.21 0 4.082 1.871 4.082 4.082 0 2.215-1.871 4.082-4.082 4.082H229.242c-2.215 0-4.082-1.867-4.082-4.082 0-2.211 1.867-4.082 4.082-4.082zM15 273.746c0-12.719 4.914-24.637 13.832-33.555L133.73 135.293c8.922-8.922 20.836-13.832 33.555-13.832 10.926 0 21.262 3.625 29.613 10.3L25.305 303.356C18.629 295.004 15 284.672 15 273.746zm20.215 52.457l-.957.961c-1.567 1.563-4.207 1.563-5.774 0-1.562-1.562-1.562-4.207 0-5.773l186.45-186.446a4.072 4.072 0 0 1 2.886-1.175c.782 0 1.563.218 2.235.652.011.008.027.02.039.027.215.145.422.309.61.496.183.18.339.383.48.59l.058.09c.274.43.457.902.555 1.39a4.489 4.489 0 0 1 .078.77c0 .035 0 .067-.004.102-.012 1.031-.398 2.062-1.168 2.828l-.957.96zm15.914 5.305L225.05 157.586l3.77 3.77.007.007 5.129 5.13L60.035 340.417zm19.023 31.55c-1.027 1.028-2.25 1.184-2.886 1.184s-1.856-.152-2.887-1.183c-1.563-1.563-1.563-4.207 0-5.774l186.45-186.445c.183-.184.386-.344.593-.485l.07-.046a4.148 4.148 0 0 1 4.445 0 3.935 3.935 0 0 1 .66.531c.188.183.348.387.489.601.012.02.027.036.039.055.86 1.34.86 3.117 0 4.453-.012.02-.027.04-.04.059-.14.215-.3.418-.487.601zm81.203-.347c-17.242 17.238-44.554 18.418-63.167 3.527l171.57-171.57c.48.598.957 1.2 1.41 1.82.023.035.055.067.082.102a46.779 46.779 0 0 1 3.059 4.87c.039.075.07.153.109.231 7.984 14.84 7.496 32.98-1.27 47.344-.003.004-.003.004-.003.008a48.231 48.231 0 0 1-3.153 4.543 50.158 50.158 0 0 1-1.637 1.969c-.097.11-.19.226-.292.336a46.53 46.53 0 0 1-1.805 1.918c0 .004-.004.004-.004.004l-12.984 12.984-.008.008-17.969 17.968-.012.012zm332.707-79.102v12.598H239.075l12.598-12.598zm8.856 35.762H229.242c-2.215 0-4.082-1.867-4.082-4.082 0-2.21 1.867-4.082 4.082-4.082h263.676c2.21 0 4.082 1.871 4.082 4.082 0 2.215-1.871 4.082-4.082 4.082zm0-58.926c2.21 0 4.082 1.868 4.082 4.082 0 2.211-1.871 4.078-4.082 4.078H266.672l.187-.187a62.503 62.503 0 0 0 1.98-2.082c.313-.344.614-.695.919-1.043.293-.34.59-.676.875-1.02.406-.488.8-.976 1.187-1.472.137-.168.27-.344.399-.516.469-.605.93-1.219 1.37-1.844h219.329zm-10.504-15h-200.98c4.843-13.5 4.914-28.343.187-41.87 1.754-.2 3.516-.302 5.285-.302h148.348c24.379 0 44.523 18.48 47.16 42.172zm-47.16-57.172H286.906a46.815 46.815 0 0 1-15-2.46c-.05-.067-.105-.13-.156-.192a65.666 65.666 0 0 0-1.332-1.633c-.121-.136-.23-.285-.352-.422.176-.289.336-.586.493-.882l.062-.11c.27-.511.508-1.039.73-1.574.032-.082.063-.168.094-.25.188-.469.352-.941.5-1.426l.075-.246c.156-.531.289-1.066.394-1.613.023-.117.04-.235.059-.356.074-.41.136-.824.18-1.242.023-.187.042-.375.058-.562.035-.422.055-.844.062-1.27a19.745 19.745 0 0 0-.082-2.203c-.007-.047-.02-.094-.023-.144a18.785 18.785 0 0 0-.246-1.665c-.07-.355-.168-.707-.258-1.058-.059-.238-.105-.477-.176-.715-.133-.445-.297-.883-.46-1.32-.055-.137-.094-.278-.15-.418a17.831 17.831 0 0 0-.616-1.328c-.063-.121-.11-.243-.172-.364a18.034 18.034 0 0 0-.73-1.238c-.079-.125-.15-.258-.231-.383a18.793 18.793 0 0 0-.852-1.16c-.097-.125-.18-.254-.28-.375a18.539 18.539 0 0 0-1.294-1.434 20.086 20.086 0 0 0-1.324-1.195c-.14-.117-.285-.222-.426-.336a19.694 19.694 0 0 0-1.492-1.058c-.348-.223-.703-.43-1.066-.63-.145-.077-.29-.163-.438-.238a17.986 17.986 0 0 0-1.55-.722c-.032-.012-.063-.02-.09-.031a19.24 19.24 0 0 0-1.512-.528c-.164-.05-.328-.09-.493-.137-.39-.105-.78-.203-1.171-.285-.18-.035-.36-.074-.54-.105-.41-.074-.828-.133-1.242-.18-.144-.015-.289-.035-.433-.05a18.869 18.869 0 0 0-1.696-.079c-.046 0-.097.004-.144.004a20.18 20.18 0 0 0-1.535.07c-.164.016-.324.04-.489.055a21.387 21.387 0 0 0-1.73.274c-.422.086-.84.191-1.254.304-.133.04-.266.067-.398.11-.543.164-1.082.347-1.614.562-.082.031-.16.074-.242.106-.347.148-.699.297-1.043.464l-4.437-4.433a47.508 47.508 0 0 1-1.098-6.067H482.41c-2.633 23.684-22.777 42.168-47.156 42.168zm0 0"/>
</symbol><symbol id="icon-rectangle" viewBox="0 0 602 380">
    <path d="M.46.5L277 43l324.46 337L88 245 .46.5z"/>
</symbol></svg>