<svg xmlns="http://www.w3.org/2000/svg" xmlns:xlink="http://www.w3.org/1999/xlink" preserveAspectRatio="xMidYMid" width="150" height="30" viewBox="0 0 150 30">
  <defs>
    <style>
      .cls-1 {
        fill: #353744;
        opacity: 0.2;
        fill-rule: evenodd;
      }
    </style>
  </defs>
  <path d="M144.873,10.486 C142.047,10.486 139.747,8.134 139.747,5.243 C139.747,2.351 142.047,-0.000 144.873,-0.000 C147.701,-0.000 150.000,2.350 150.000,5.243 C150.000,8.134 147.701,10.486 144.873,10.486 ZM144.873,0.690 C142.418,0.690 140.423,2.732 140.423,5.243 C140.423,7.753 142.419,9.796 144.873,9.796 C147.327,9.796 149.325,7.752 149.325,5.243 C149.325,2.732 147.327,0.690 144.873,0.690 ZM147.294,8.056 L146.050,8.056 L146.050,8.056 L144.977,5.812 L144.199,5.812 L144.199,8.056 L143.133,8.056 L143.133,2.431 L145.286,2.431 C146.401,2.431 147.072,3.210 147.072,4.151 C147.072,4.943 146.602,5.432 146.059,5.631 L147.294,8.056 ZM145.212,3.409 L144.198,3.409 L144.198,4.894 L145.212,4.894 C145.687,4.894 145.994,4.587 145.994,4.150 C145.994,3.718 145.686,3.409 145.212,3.409 ZM136.113,28.947 L134.757,25.750 L123.037,25.750 L126.190,18.364 L131.598,18.364 L128.894,12.034 L132.727,3.054 L143.779,28.947 L136.113,28.947 ZM112.498,28.947 L104.648,28.947 L104.648,11.447 L98.439,11.447 L98.439,4.107 L118.706,4.107 L118.706,11.447 L112.498,11.447 L112.498,28.947 ZM86.258,25.750 L74.539,25.750 L77.690,18.364 L83.098,18.364 L80.395,12.034 L84.228,3.054 L95.280,28.947 L87.614,28.947 L86.258,25.750 ZM49.865,4.107 L57.530,4.107 L60.916,12.082 L64.302,4.107 L71.968,4.107 L60.916,30.000 L49.865,4.107 ZM44.250,16.342 L44.250,16.711 C44.250,16.648 44.245,16.590 44.245,16.527 C44.245,16.464 44.250,16.406 44.250,16.342 ZM32.802,29.616 C24.903,29.616 21.411,24.857 21.358,16.526 C21.411,8.196 24.903,3.438 32.802,3.438 C40.700,3.438 44.193,8.197 44.245,16.526 C44.193,24.857 40.700,29.616 32.802,29.616 ZM32.802,10.397 C30.018,10.397 29.125,12.455 29.125,16.527 C29.125,20.599 30.018,22.657 32.802,22.657 C35.585,22.657 36.478,20.599 36.478,16.527 C36.478,12.455 35.585,10.397 32.802,10.397 ZM21.353,16.711 L21.353,16.342 C21.353,16.406 21.357,16.464 21.358,16.527 C21.357,16.590 21.353,16.648 21.353,16.711 ZM-0.001,4.107 L7.850,4.107 L7.850,21.607 L14.058,21.607 L14.058,28.947 L-0.001,28.947 L-0.001,4.107 Z" class="cls-1"/>
</svg>
