<svg xmlns="http://www.w3.org/2000/svg" xmlns:xlink="http://www.w3.org/1999/xlink" preserveAspectRatio="xMidYMid" width="237.03" height="67" viewBox="0 0 237.03 67">
  <defs>
    <style>
      .cls-1, .cls-2 {
        fill: #fff;
      }

      .cls-1, .cls-2, .cls-3 {
        fill-rule: evenodd;
      }

      .cls-2 {
        opacity: 0.3;
      }

      .cls-3 {
        fill: #72737c;
      }
    </style>
  </defs>
  <g>
    <path d="M216.421,53.257 L204.141,53.257 C204.310,52.424 204.400,51.562 204.400,50.679 C204.400,43.563 198.633,37.795 191.520,37.795 C184.406,37.795 178.639,43.563 178.639,50.679 C178.639,51.562 178.728,52.424 178.897,53.257 L171.769,53.257 L163.182,39.513 L132.269,39.513 C131.182,39.513 130.552,38.852 130.552,37.795 L130.552,13.744 L110.620,13.744 C111.277,12.455 111.655,11.000 111.655,9.453 C111.655,7.113 110.801,4.975 109.395,3.324 L126.866,0.048 C127.011,0.000 127.180,0.000 127.325,0.000 L211.269,0.000 C213.401,0.000 218.139,5.048 218.139,6.872 C218.139,6.872 223.291,15.654 223.291,25.769 C223.291,53.257 216.421,53.257 216.421,53.257 ZM202.416,10.312 L141.102,10.312 C140.002,10.312 139.122,11.081 139.122,12.020 C139.122,12.960 140.002,13.729 141.102,13.729 L202.416,13.729 C203.516,13.729 204.397,12.960 204.397,12.020 C204.397,11.081 203.516,10.312 202.416,10.312 ZM202.416,20.594 L141.102,20.594 C140.002,20.594 139.122,21.373 139.122,22.326 C139.122,23.279 140.002,24.059 141.102,24.059 L202.416,24.059 C203.516,24.059 204.397,23.279 204.397,22.326 C204.397,21.373 203.516,20.594 202.416,20.594 ZM102.217,15.469 C98.904,15.469 96.218,12.775 96.218,9.453 C96.218,6.131 98.904,3.437 102.217,3.437 C105.531,3.437 108.217,6.131 108.217,9.453 C108.217,12.775 105.531,15.469 102.217,15.469 ZM101.150,18.842 L84.985,41.481 C83.781,38.341 81.466,35.757 78.511,34.215 L93.648,13.395 C94.999,16.336 97.807,18.464 101.150,18.842 ZM72.161,58.410 C72.113,58.410 72.141,36.077 72.161,36.077 C78.326,36.077 82.465,41.076 82.465,47.244 C82.465,53.411 78.326,58.410 72.161,58.410 ZM97.167,37.139 L97.942,37.139 L97.942,36.887 C97.942,36.551 98.015,36.191 98.208,35.878 C98.305,35.686 98.884,34.677 99.657,33.332 C102.651,28.119 108.156,17.180 109.943,17.180 L123.682,17.180 C126.958,17.180 127.117,17.178 127.117,20.615 L127.117,42.949 L161.465,42.949 L168.334,53.257 L159.749,53.257 L159.749,47.375 C159.749,46.823 159.301,46.375 158.749,46.375 L131.561,46.375 C131.009,46.375 130.561,46.823 130.561,47.375 L130.561,53.257 L125.145,53.257 C125.315,52.421 125.405,51.557 125.405,50.672 C125.405,43.553 119.634,37.781 112.514,37.781 C105.395,37.781 99.624,43.553 99.624,50.672 C99.624,51.208 99.667,51.734 99.731,52.254 C99.322,51.960 98.941,51.641 98.739,51.348 C98.257,50.628 97.942,49.667 97.942,48.634 L97.942,43.541 L97.942,42.567 L97.167,42.567 C95.694,42.567 94.486,41.367 94.486,39.925 L94.486,39.781 C94.486,38.316 95.694,37.139 97.167,37.139 ZM104.385,35.878 L107.247,28.744 L104.408,35.878 C104.618,35.947 104.850,36.017 105.059,36.040 C105.314,36.063 105.546,36.086 105.732,36.086 L117.111,36.086 C118.527,36.086 119.781,35.417 120.665,34.356 C121.477,33.388 121.964,32.096 121.964,30.666 L121.964,26.054 C121.964,24.624 121.477,23.333 120.665,22.364 C119.781,21.303 118.527,20.635 117.111,20.635 L111.770,20.635 L111.747,20.681 C111.097,20.658 110.446,20.980 110.098,21.580 L110.053,21.693 C108.052,24.988 105.902,28.757 104.478,31.220 L103.386,33.111 C103.294,33.249 103.201,33.411 103.154,33.572 C102.853,34.541 103.386,35.578 104.385,35.878 ZM112.540,41.221 C115.160,41.221 117.521,42.290 119.221,44.000 C120.920,45.710 121.984,48.086 121.984,50.675 C121.984,53.288 120.920,55.639 119.221,57.349 C117.498,59.059 115.137,60.128 112.540,60.128 C109.919,60.128 107.558,59.059 105.858,57.349 C104.158,55.639 103.096,53.264 103.096,50.675 C103.096,48.062 104.158,45.710 105.858,44.000 C107.581,42.290 109.943,41.221 112.540,41.221 ZM112.540,53.382 C114.027,53.382 115.231,52.171 115.231,50.675 C115.231,49.178 114.027,47.967 112.540,47.967 C111.052,47.967 109.848,49.178 109.848,50.675 C109.848,52.171 111.052,53.382 112.540,53.382 ZM135.475,49.821 L154.824,49.821 C155.646,49.821 156.313,50.590 156.313,51.538 L156.313,53.257 C156.313,54.205 155.646,54.974 154.824,54.974 L135.475,54.974 C134.653,54.974 133.986,54.205 133.986,53.257 L133.986,51.538 C133.986,50.590 134.653,49.821 135.475,49.821 ZM191.693,41.006 C194.373,41.006 196.788,42.087 198.526,43.817 C200.264,45.547 201.351,47.949 201.351,50.567 C201.351,53.210 200.264,55.588 198.526,57.317 C196.763,59.047 194.349,60.128 191.693,60.128 C189.012,60.128 186.598,59.047 184.859,57.317 C183.121,55.588 182.034,53.186 182.034,50.567 C182.034,47.925 183.121,45.547 184.859,43.817 C186.622,42.087 189.037,41.006 191.693,41.006 ZM191.693,53.089 C193.093,53.089 194.228,51.961 194.228,50.567 C194.228,49.174 193.093,48.045 191.693,48.045 C190.292,48.045 189.158,49.174 189.158,50.567 C189.158,51.961 190.292,53.089 191.693,53.089 Z" class="cls-1"/>
    <path d="M74.485,38.906 L73.270,40.120 L64.684,31.531 L65.898,30.316 L74.485,38.906 Z" class="cls-1"/>
    <path d="M74.485,56.085 L73.270,57.300 L64.684,48.710 L65.898,47.495 L74.485,56.085 Z" class="cls-1"/>
    <path d="M74.485,47.495 L73.270,48.710 L64.684,40.120 L65.898,38.906 L74.485,47.495 Z" class="cls-1"/>
    <path d="M71.051,52.146 L69.835,50.931 L61.249,59.521 L62.463,60.736 L71.051,52.146 Z" class="cls-1"/>
    <path d="M71.051,34.966 L69.835,33.752 L61.249,42.341 L62.463,43.556 L71.051,34.966 Z" class="cls-1"/>
    <path d="M71.051,43.556 L69.835,42.341 L61.249,50.931 L62.463,52.146 L71.051,43.556 Z" class="cls-1"/>
    <path d="M194.187,67.007 C176.230,66.939 161.664,66.193 161.674,65.343 C161.682,64.493 176.263,63.858 194.219,63.927 C212.174,63.996 237.042,64.742 237.034,65.592 C237.025,66.442 212.144,67.077 194.187,67.007 ZM80.929,66.970 C36.256,66.894 0.005,66.072 0.010,65.134 C0.015,64.195 36.272,63.495 80.944,63.571 C125.617,63.647 158.061,64.470 158.059,65.408 C158.053,66.347 125.601,67.047 80.929,66.970 Z" class="cls-2"/>
    <path d="M54.308,53.451 C54.149,53.935 53.673,54.258 53.197,54.258 C53.039,54.258 52.959,54.258 52.801,54.178 L51.293,53.693 C50.659,53.451 50.341,52.805 50.500,52.159 C50.659,51.513 51.372,51.271 52.008,51.432 L53.515,51.917 C54.149,52.159 54.466,52.805 54.308,53.451 ZM49.230,44.166 C49.072,44.166 48.914,44.166 48.755,44.085 L45.740,42.712 C45.105,42.470 44.868,41.743 45.185,41.098 C45.502,40.452 46.216,40.209 46.772,40.452 L49.786,41.824 C50.421,42.066 50.659,42.793 50.341,43.439 C50.103,43.924 49.707,44.166 49.230,44.166 ZM42.964,56.358 C42.726,56.600 42.409,56.681 42.091,56.681 C41.774,56.681 41.456,56.600 41.219,56.358 C40.743,55.873 40.743,55.147 41.219,54.662 L42.171,53.774 C42.647,53.290 43.361,53.290 43.837,53.774 C44.313,54.258 44.313,54.985 43.837,55.469 L42.964,56.358 ZM39.870,47.799 C39.632,48.041 39.315,48.203 38.997,48.203 C38.681,48.203 38.442,48.122 38.205,47.880 C37.728,47.395 37.650,46.669 38.125,46.184 L39.870,44.166 C40.346,43.681 41.060,43.601 41.536,44.085 C42.012,44.569 42.091,45.296 41.615,45.781 L39.870,47.799 Z" class="cls-3"/>
    <path d="M56.436,60.125 L36.374,60.125 C35.269,60.125 34.374,59.230 34.374,58.125 L34.374,38.062 C34.374,36.958 35.269,36.062 36.374,36.062 L56.436,36.062 C57.541,36.062 58.436,36.958 58.436,38.062 L58.436,58.125 C58.436,59.230 57.541,60.125 56.436,60.125 ZM56.717,38.781 C56.717,38.229 56.270,37.781 55.718,37.781 L37.092,37.781 C36.540,37.781 36.093,38.229 36.093,38.781 L36.093,57.406 C36.093,57.959 36.540,58.406 37.092,58.406 L55.718,58.406 C56.270,58.406 56.717,57.959 56.717,57.406 L56.717,38.781 Z" class="cls-3"/>
    <path d="M26.830,53.451 C26.671,53.935 26.195,54.258 25.719,54.258 C25.560,54.258 25.481,54.258 25.322,54.178 L23.815,53.693 C23.181,53.451 22.863,52.805 23.022,52.159 C23.181,51.513 23.895,51.271 24.529,51.432 L26.037,51.917 C26.671,52.159 26.988,52.805 26.830,53.451 ZM21.752,44.166 C21.594,44.166 21.436,44.166 21.277,44.085 L18.262,42.712 C17.627,42.470 17.390,41.743 17.707,41.098 C18.024,40.452 18.738,40.209 19.294,40.452 L22.308,41.824 C22.943,42.066 23.181,42.793 22.863,43.439 C22.625,43.924 22.228,44.166 21.752,44.166 ZM20.264,46.708 C20.756,47.224 20.756,47.999 20.264,48.516 L19.364,49.464 C19.118,49.722 18.790,49.808 18.462,49.808 C18.135,49.808 17.808,49.722 17.562,49.464 C17.071,48.947 17.071,48.172 17.562,47.655 L18.545,46.708 C19.036,46.191 19.773,46.191 20.264,46.708 ZM15.485,56.358 C15.248,56.600 14.930,56.681 14.613,56.681 C14.296,56.681 13.978,56.600 13.741,56.358 C13.264,55.873 13.264,55.147 13.741,54.662 L14.693,53.774 C15.169,53.290 15.882,53.290 16.358,53.774 C16.835,54.258 16.835,54.985 16.358,55.469 L15.485,56.358 ZM12.392,47.799 C12.154,48.041 11.837,48.203 11.519,48.203 C11.202,48.203 10.964,48.122 10.726,47.880 C10.250,47.395 10.171,46.669 10.647,46.184 L12.392,44.166 C12.868,43.681 13.582,43.601 14.058,44.085 C14.534,44.569 14.613,45.296 14.137,45.781 L12.392,47.799 Z" class="cls-3"/>
    <path d="M28.936,60.125 L8.905,60.125 C7.800,60.125 6.905,59.230 6.905,58.125 L6.905,38.062 C6.905,36.958 7.800,36.062 8.905,36.062 L28.936,36.062 C30.041,36.062 30.936,36.958 30.936,38.062 L30.936,58.125 C30.936,59.230 30.041,60.125 28.936,60.125 ZM29.218,38.781 C29.218,38.229 28.770,37.781 28.217,37.781 L9.624,37.781 C9.071,37.781 8.624,38.229 8.624,38.781 L8.624,57.406 C8.624,57.959 9.071,58.406 9.624,58.406 L28.217,58.406 C28.770,58.406 29.218,57.959 29.218,57.406 L29.218,38.781 Z" class="cls-3"/>
    <path d="M23.395,31.118 C23.236,31.602 22.760,31.925 22.284,31.925 C22.125,31.925 22.046,31.925 21.888,31.844 L20.381,31.360 C19.746,31.118 19.428,30.472 19.587,29.826 C19.746,29.180 20.460,28.938 21.094,29.099 L22.601,29.584 C23.236,29.826 23.554,30.472 23.395,31.118 ZM18.318,21.833 C18.159,21.833 18.000,21.833 17.842,21.752 L14.827,20.379 C14.192,20.137 13.955,19.410 14.272,18.764 C14.590,18.118 15.303,17.876 15.859,18.118 L18.873,19.491 C19.508,19.733 19.746,20.460 19.428,21.106 C19.190,21.590 18.794,21.833 18.318,21.833 ZM16.863,24.434 C17.260,24.995 17.325,25.835 16.930,26.395 L15.480,28.730 C15.281,29.010 15.018,29.197 14.754,29.197 C14.490,29.197 14.292,29.103 14.095,28.824 C13.700,28.263 13.633,27.423 14.028,26.862 L15.480,24.528 C15.875,23.967 16.468,23.874 16.863,24.434 ZM12.051,34.025 C11.813,34.267 11.496,34.347 11.178,34.347 C10.861,34.347 10.543,34.267 10.306,34.025 C9.829,33.540 9.829,32.813 10.306,32.329 L11.258,31.441 C11.734,30.956 12.447,30.956 12.923,31.441 C13.399,31.925 13.399,32.652 12.923,33.136 L12.051,34.025 ZM8.957,25.466 C8.719,25.708 8.402,25.870 8.084,25.870 C7.767,25.870 7.529,25.789 7.291,25.547 C6.815,25.062 6.736,24.336 7.212,23.851 L8.957,21.833 C9.433,21.348 10.147,21.267 10.623,21.752 C11.099,22.236 11.178,22.963 10.702,23.447 L8.957,25.466 Z" class="cls-3"/>
    <path d="M25.499,37.781 L5.467,37.781 C4.363,37.781 3.468,36.886 3.468,35.781 L3.468,15.750 C3.468,14.645 4.363,13.750 5.467,13.750 L25.499,13.750 C26.603,13.750 27.499,14.645 27.499,15.750 L27.499,35.781 C27.499,36.886 26.603,37.781 25.499,37.781 ZM25.780,16.469 C25.780,15.916 25.332,15.469 24.780,15.469 L6.186,15.469 C5.634,15.469 5.186,15.916 5.186,16.469 L5.186,35.063 C5.186,35.615 5.634,36.062 6.186,36.062 L24.780,36.062 C25.332,36.062 25.780,35.615 25.780,35.063 L25.780,16.469 Z" class="cls-3"/>
    <path d="M49.049,20.106 C48.538,20.280 48.086,20.171 47.750,19.834 C47.637,19.722 47.525,19.610 47.470,19.441 L46.309,16.338 C46.031,15.718 46.377,15.035 47.058,14.803 C47.738,14.571 48.414,14.904 48.636,15.469 L49.797,18.572 C50.075,19.192 49.730,19.874 49.049,20.106 ZM44.776,29.991 C44.321,30.221 43.757,30.113 43.420,29.777 C43.308,29.664 43.251,29.608 43.196,29.439 L42.473,28.030 C42.195,27.410 42.428,26.729 42.996,26.384 C43.566,26.040 44.242,26.374 44.576,26.937 L45.300,28.345 C45.577,28.966 45.345,29.647 44.776,29.991 ZM43.648,22.318 C43.134,22.632 42.560,22.609 42.260,22.310 C42.161,22.210 42.110,22.160 42.080,21.991 L41.546,20.630 C41.354,20.024 41.706,19.273 42.357,18.821 C43.008,18.370 43.664,18.611 43.925,19.148 L44.458,20.510 C44.651,21.116 44.299,21.866 43.648,22.318 ZM41.223,15.589 L38.562,15.782 C38.223,15.785 37.885,15.675 37.660,15.450 C37.436,15.226 37.324,15.001 37.327,14.661 C37.333,13.982 37.791,13.412 38.469,13.406 L41.131,13.213 C41.810,13.207 42.372,13.655 42.366,14.334 C42.360,15.014 41.902,15.583 41.223,15.589 ZM35.945,24.012 L34.700,24.022 C34.361,24.026 34.079,23.858 33.855,23.634 C33.631,23.409 33.463,23.128 33.466,22.788 C33.472,22.109 33.985,21.595 34.665,21.589 L35.965,21.634 C36.645,21.628 37.149,22.134 37.143,22.813 C37.137,23.492 36.624,24.006 35.945,24.012 Z" class="cls-3"/>
    <path d="M57.538,23.045 L45.393,35.193 C44.052,36.535 41.877,36.535 40.536,35.193 L28.392,23.045 C27.051,21.703 27.051,19.528 28.392,18.186 L40.536,6.038 C41.877,4.696 44.052,4.696 45.393,6.038 L57.538,18.186 C58.878,19.528 58.878,21.703 57.538,23.045 ZM56.323,19.401 L44.179,7.253 C43.508,6.582 42.421,6.582 41.751,7.253 L29.606,19.401 C28.936,20.072 28.936,21.159 29.606,21.830 L41.751,33.978 C42.421,34.649 43.508,34.649 44.179,33.978 L56.323,21.830 C56.993,21.159 56.993,20.072 56.323,19.401 Z" class="cls-3"/>
  </g>
</svg>
